<?xml version="1.0" encoding="utf-8"?>
<svg viewBox="1221.3526 513.9984 48.4218 45.9023" width="48.4218" height="45.9023" xmlns="http://www.w3.org/2000/svg">
  <defs>
    <marker orient="auto" refY="0" refX="0" id="Arrow1Lend-8-28-6-9-2-6-6" style="overflow:visible">
      <path id="path6029-3-35-18-7-65-5-1" d="M 0,0 5,-5 -12.5,0 5,5 0,0 Z" style="fill:#ffffff;fill-opacity:1;fill-rule:evenodd;stroke:#ffffff;stroke-width:1pt;stroke-opacity:1" transform="matrix(-0.8,0,0,-0.8,-10,0)"/>
    </marker>
  </defs>
  <g transform="matrix(0.970638, 0, 0, 0.970638, 1216.178589, 503.594299)" id="g-1" style="opacity:1;fill:#d1d4d0;fill-opacity:1;stroke:#2c3e50;stroke-width:1.5;stroke-miterlimit:4;stroke-dasharray:none;stroke-opacity:1">
    <circle r="21.168638" cy="33.02533" cx="27.486773" id="circle-1" style="fill:#d1d4d0;fill-opacity:1;fill-rule:evenodd;stroke:#2c3e50;stroke-width:1.5;stroke-linecap:butt;stroke-linejoin:miter;stroke-miterlimit:4;stroke-dasharray:none;stroke-opacity:1"/>
  </g>
  <text style="font-style: normal; font-variant: normal; font-weight: normal; font-stretch: normal; font-size: 33.4098px; line-height: 125%; font-family: Tahoma; letter-spacing: 0px; word-spacing: 0px; fill: rgb(44, 62, 80); fill-opacity: 1; stroke: none; stroke-width: 1px; stroke-linecap: butt; stroke-linejoin: miter; stroke-opacity: 1; white-space: pre;" x="652.28827" y="180.34686" id="text-1" transform="matrix(0.993784, 0, 0, 0.948031, 585.08551, 375.935608)"><tspan id="tspan-1" x="652.28827" y="180.34686">B</tspan></text>
  <g transform="matrix(0.495736, 0, 0, 0.495736, 1245.190918, 532.791504)" id="g-2" style="opacity:1;fill:#ff0a0c;fill-opacity:1;stroke:none;stroke-width:1.5;stroke-miterlimit:4;stroke-dasharray:none;stroke-opacity:1">
    <circle r="21.168638" cy="33.02533" cx="27.486773" id="circle-2" style="fill:#ff0a0c;fill-opacity:1;fill-rule:evenodd;stroke:none;stroke-width:1.5;stroke-linecap:butt;stroke-linejoin:miter;stroke-miterlimit:4;stroke-dasharray:none;stroke-opacity:1"/>
  </g>
  <g id="g-3" transform="matrix(1.003126, 0, 0, 1.003126, 898.932983, 146.227844)" style="fill:#ffffff;fill-opacity:1;stroke:none">
    <path style="fill:#ffffff;fill-opacity:1;stroke:none;stroke-width:0.19571705;stroke-miterlimit:4;stroke-dasharray:none;stroke-opacity:1" d="m 352.35228,397.71034 -0.47193,-0.47833 0.44194,-0.41434 c 1.53116,-1.43555 3.42702,-2.18312 5.52427,-2.17832 2.08656,0.005 4.00989,0.78887 5.51906,2.25001 l 0.37359,0.3617 -0.47921,0.47922 -0.47922,0.47921 -0.45977,-0.42567 c -1.10553,-1.02355 -2.33978,-1.58537 -3.85321,-1.75395 -1.8699,-0.20828 -3.76628,0.43589 -5.1635,1.75395 -0.23603,0.22267 -0.44062,0.40485 -0.45462,0.40485 -0.014,0 -0.23784,-0.21525 -0.4974,-0.47833 z" id="path-2"/>
    <path style="fill:#ffffff;fill-opacity:1;stroke:none;stroke-width:0.19571705;stroke-miterlimit:4;stroke-dasharray:none;stroke-opacity:1" d="m 360.44439,399.72313 c -0.44062,-0.42973 -1.17291,-0.83064 -1.77708,-0.9729 -0.19098,-0.045 -0.61714,-0.0785 -0.94702,-0.0746 -1.0267,0.0123 -1.97247,0.40886 -2.69247,1.12886 l -0.29175,0.29175 -0.44781,-0.44781 -0.44781,-0.44781 0.31421,-0.32246 c 1.36455,-1.40044 3.5308,-1.87746 5.41298,-1.19198 0.76409,0.27828 1.8071,0.98194 2.08567,1.40709 0.0957,0.14599 0.0869,0.16044 -0.35489,0.58532 l -0.45297,0.43564 -0.40106,-0.39114 z" id="path-3"/>
    <path style="fill:#ffffff;fill-opacity:1;stroke:none;stroke-width:0.19571705;stroke-miterlimit:4;stroke-dasharray:none;stroke-opacity:1" d="m 358.91985,401.99589 c 0,-0.13787 -0.34284,-0.47943 -0.59717,-0.59496 -0.53118,-0.24128 -1.1372,-0.10499 -1.53187,0.34451 l -0.19148,0.21808 -0.48186,-0.48471 -0.48187,-0.48471 0.26895,-0.25648 c 0.38624,-0.36835 0.59965,-0.5004 1.06066,-0.65629 0.56796,-0.19204 1.32521,-0.15821 1.84958,0.0827 0.4195,0.19269 0.80288,0.47818 0.9843,0.73295 l 0.12402,0.17417 -0.50163,0.49869 c -0.2759,0.27428 -0.50163,0.46602 -0.50163,0.4261 z" id="path-4"/>
    <path style="fill:#ffffff;fill-opacity:1;stroke:none;stroke-width:0.19571705;stroke-miterlimit:4;stroke-dasharray:none;stroke-opacity:1" d="m 357.34148,403.57915 c -0.2621,-0.16418 -0.40022,-0.4051 -0.42753,-0.74569 -0.0309,-0.38541 0.14559,-0.6984 0.49193,-0.8724 0.29364,-0.14754 0.54749,-0.13777 0.84448,0.0325 0.60463,0.34664 0.62796,1.15479 0.0446,1.5445 -0.25565,0.17079 -0.71482,0.19057 -0.95347,0.0411 z" id="path-5"/>
  </g>
  <path id="path-6" d="M 1261.839 552.148 L 1264.511 546.885" style="opacity:1;fill:none;fill-rule:evenodd;stroke:#ffffff;stroke-width:0.62836725px;stroke-linecap:butt;stroke-linejoin:miter;stroke-opacity:1;marker-end:url(#Arrow1Lend-8-28-6-9-2-6-6)"/>
</svg>