<?xml version="1.0" encoding="utf-8"?>
<svg viewBox="620.6255 -319.2907 78.2103 78.2203" width="78.2103" height="78.2203" xmlns="http://www.w3.org/2000/svg">
  <g transform="matrix(0.958953, 0, 0, 0.958953, 27.056614, -11.461349)">
    <g transform="matrix(1.847289, 0, 0, 1.847289, 608.954041, -341.182312)" id="layer1-61-3-6-1-9-7-4-29-8-5-6-11" style="opacity:1;fill:#d1d4d0;fill-opacity:1;stroke:#2c3e50;stroke-width:1.50003576;stroke-miterlimit:4;stroke-dasharray:none;stroke-opacity:1">
      <circle r="21.168638" cy="33.02533" cx="27.486773" id="path4149-8-7-0-3-3-3-6-3-1-0-0-7" style="fill:#d1d4d0;fill-opacity:1;fill-rule:evenodd;stroke:#2c3e50;stroke-width:1.50003576;stroke-linecap:butt;stroke-linejoin:miter;stroke-miterlimit:4;stroke-dasharray:none;stroke-opacity:1"/>
    </g>
    <path style="fill:#2c3b50;fill-opacity:0.33788398;fill-rule:evenodd;stroke:none;stroke-width:2.77093387;stroke-linecap:butt;stroke-linejoin:miter;stroke-miterlimit:4;stroke-dasharray:none;stroke-opacity:1" d="m 671.52635,-305.85744 -2.81836,7.12891 11.08984,5.35547 0.83789,26.92969 -46.16015,1.625 27.55078,23.69336 c 19.06787,-2.93167 36.7736,-19.70613 36.78711,-38.99805 -0.0133,-1.86618 -0.0351,-1.72901 -0.31445,-3.57422 z" id="path4149-8-7-0-3-3-3-6-3-1-0-9"/>
    <g transform="matrix(1.847289, 0, 0, 1.847289, 608.955139, -341.19339)" id="layer1-61-3-6-1-9-7-4-29-8-5-6-1-6" style="opacity:1;fill:none;fill-opacity:1;stroke:#2c3b50;stroke-width:1.50003576;stroke-miterlimit:4;stroke-dasharray:none;stroke-opacity:1">
      <circle r="21.168638" cy="33.02533" cx="27.486773" id="path4149-8-7-0-3-3-3-6-3-1-0-0-3-6" style="fill:none;fill-opacity:1;fill-rule:evenodd;stroke:#2c3b50;stroke-width:1.50003576;stroke-linecap:butt;stroke-linejoin:miter;stroke-miterlimit:4;stroke-dasharray:none;stroke-opacity:1"/>
    </g>
    <g id="g4984-9-0" transform="matrix(0.143928, 0, 0, 0.143928, 634.081482, -310.347076)" style="fill:#2c3e50;fill-opacity:1;stroke:none;stroke-width:9.64304256;stroke-miterlimit:4;stroke-dasharray:none;stroke-opacity:1">
      <g style="fill:#2c3e50;fill-opacity:1;stroke:none;stroke-width:9.64304256;stroke-miterlimit:4;stroke-dasharray:none;stroke-opacity:1" id="g3-7-7">
        <g style="fill:#2c3e50;fill-opacity:1;stroke:none;stroke-width:9.64304256;stroke-miterlimit:4;stroke-dasharray:none;stroke-opacity:1" id="Layer_5_78_-3-8">
          <path style="fill:#2c3e50;fill-opacity:1;stroke:none;stroke-width:9.64304256;stroke-miterlimit:4;stroke-dasharray:none;stroke-opacity:1" id="path6-1-0" d="m 344.046,298.535 c 0,0 -3.254,0 -4.338,0 -2.375,0 -2.375,-2.811 -2.375,-2.811 l 0,-196.63 c 0,-4.95 -4.051,-9 -9,-9 0,0 -52.219,0 -69.625,0 -2.5,0 -2.367,-2.37 -2.367,-2.37 l 0,-37.906 c 0,-0.375 0.211,-0.796 1.455,-0.796 2.75,0 5,-2.25 5,-5 l 0,-8.881 c 0,-2.75 -2.25,-5 -5,-5 l -161.666,0 c -2.75,0 -5,2.25 -5,5 l 0,8.881 c 0,2.75 2.25,5 5,5 1.453,0 1.456,1.302 1.456,1.453 l 0,36.375 c 0,0 0.247,3.245 -1.878,3.245 -18.799,0 -75.193,0 -75.193,0 -4.95,0 -9,4.05 -9,9 0,0 0,147.941 0,197.255 0,1.875 -1.016,2.186 -3.068,2.186 -2.654,0 -3.447,0 -3.447,0 -2.75,0 -5,2.25 -5,5 l 0,10.369 c 0,2.75 2.25,5 5,5 l 339.046,0 c 2.75,0 5,-2.25 5,-5 l 0,-10.369 c 0,-2.751 -2.25,-5.001 -5,-5.001 z m -147.971,-165.326 29.924,0 c 2.201,0 4,1.8 4,4 l 0,29.925 c 0,2.2 -1.799,4 -4,4 l -29.924,0 c -2.201,0 -4,-1.8 -4,-4 l 0,-29.925 c 0,-2.2 1.799,-4 4,-4 z m -4,-18.562 0,-29.925 c 0,-2.2 1.799,-4 4,-4 l 29.924,0 c 2.201,0 4,1.8 4,4 l 0,29.925 c 0,2.2 -1.799,4 -4,4 l -29.924,0 c -2.201,0 -4,-1.8 -4,-4 z m 4,69.199 29.924,0 c 2.201,0 4,1.8 4,4 l 0,29.925 c 0,2.2 -1.799,4 -4,4 l -29.924,0 c -2.201,0 -4,-1.8 -4,-4 l 0,-29.925 c 0,-2.199 1.799,-4 4,-4 z m 4.441,60.162 c 2.199,0 4,1.8 4,4 l 0,46.335 c 0,2.2 -1.801,4 -4,4 l -46.335,0 c -2.199,0 -4,-1.8 -4,-4 l 0,-46.335 c 0,-2.2 1.801,-4 4,-4 l 46.335,0 z M 161.903,114.647 c 0,2.2 -1.8,4 -4,4 l -29.925,0 c -2.2,0 -4,-1.8 -4,-4 l 0,-29.925 c 0,-2.2 1.8,-4 4,-4 l 29.925,0 c 2.2,0 4,1.8 4,4 l 0,29.925 z m -33.925,18.562 29.925,0 c 2.2,0 4,1.8 4,4 l 0,29.925 c 0,2.2 -1.8,4 -4,4 l -29.925,0 c -2.2,0 -4,-1.8 -4,-4 l 0,-29.925 c 0,-2.2 1.8,-4 4,-4 z m 0,50.637 29.925,0 c 2.2,0 4,1.8 4,4 l 0,29.925 c 0,2.2 -1.8,4 -4,4 l -29.925,0 c -2.2,0 -4,-1.8 -4,-4 l 0,-29.925 c 0,-2.199 1.8,-4 4,-4 z m 140.144,-47.562 c 0,-2.2 1.801,-4 4,-4 l 29.926,0 c 2.199,0 4,1.8 4,4 l 0,29.925 c 0,2.2 -1.801,4 -4,4 l -29.926,0 c -2.199,0 -4,-1.8 -4,-4 l 0,-29.925 z m 0,52.488 c 0,-2.2 1.801,-4 4,-4 l 29.926,0 c 2.199,0 4,1.8 4,4 l 0,29.925 c 0,2.2 -1.801,4 -4,4 l -29.926,0 c -2.199,0 -4,-1.8 -4,-4 l 0,-29.925 z m 0,50.636 c 0,-2.2 1.801,-4 4,-4 l 29.926,0 c 2.199,0 4,1.8 4,4 l 0,29.925 c 0,2.2 -1.801,4 -4,4 l -29.926,0 c -2.199,0 -4,-1.8 -4,-4 l 0,-29.925 z M 42.8,136.284 c 0,-2.2 1.8,-4 4,-4 l 29.925,0 c 2.2,0 4,1.8 4,4 l 0,29.925 c 0,2.2 -1.8,4 -4,4 l -29.925,0 c -2.2,0 -4,-1.8 -4,-4 l 0,-29.925 z m 0,52.488 c 0,-2.2 1.8,-4 4,-4 l 29.925,0 c 2.2,0 4,1.8 4,4 l 0,29.925 c 0,2.2 -1.8,4 -4,4 l -29.925,0 c -2.2,0 -4,-1.8 -4,-4 l 0,-29.925 z m 0,50.636 c 0,-2.2 1.8,-4 4,-4 l 29.925,0 c 2.2,0 4,1.8 4,4 l 0,29.925 c 0,2.2 -1.8,4 -4,4 l -29.925,0 c -2.2,0 -4,-1.8 -4,-4 l 0,-29.925 z"/>
        </g>
      </g>
      <g id="g8-6-8" style="fill:#2c3e50;fill-opacity:1;stroke:none;stroke-width:9.64304256;stroke-miterlimit:4;stroke-dasharray:none;stroke-opacity:1"/>
      <g id="g10-0-9" style="fill:#2c3e50;fill-opacity:1;stroke:none;stroke-width:9.64304256;stroke-miterlimit:4;stroke-dasharray:none;stroke-opacity:1"/>
      <g id="g12-2-5" style="fill:#2c3e50;fill-opacity:1;stroke:none;stroke-width:9.64304256;stroke-miterlimit:4;stroke-dasharray:none;stroke-opacity:1"/>
      <g id="g14-2-1" style="fill:#2c3e50;fill-opacity:1;stroke:none;stroke-width:9.64304256;stroke-miterlimit:4;stroke-dasharray:none;stroke-opacity:1"/>
      <g id="g16-7-5" style="fill:#2c3e50;fill-opacity:1;stroke:none;stroke-width:9.64304256;stroke-miterlimit:4;stroke-dasharray:none;stroke-opacity:1"/>
      <g id="g18-4-2" style="fill:#2c3e50;fill-opacity:1;stroke:none;stroke-width:9.64304256;stroke-miterlimit:4;stroke-dasharray:none;stroke-opacity:1"/>
      <g id="g20-8-7" style="fill:#2c3e50;fill-opacity:1;stroke:none;stroke-width:9.64304256;stroke-miterlimit:4;stroke-dasharray:none;stroke-opacity:1"/>
      <g id="g22-8-3" style="fill:#2c3e50;fill-opacity:1;stroke:none;stroke-width:9.64304256;stroke-miterlimit:4;stroke-dasharray:none;stroke-opacity:1"/>
      <g id="g24-8-5" style="fill:#2c3e50;fill-opacity:1;stroke:none;stroke-width:9.64304256;stroke-miterlimit:4;stroke-dasharray:none;stroke-opacity:1"/>
      <g id="g26-6-3" style="fill:#2c3e50;fill-opacity:1;stroke:none;stroke-width:9.64304256;stroke-miterlimit:4;stroke-dasharray:none;stroke-opacity:1"/>
      <g id="g28-3-8" style="fill:#2c3e50;fill-opacity:1;stroke:none;stroke-width:9.64304256;stroke-miterlimit:4;stroke-dasharray:none;stroke-opacity:1"/>
      <g id="g30-7-1" style="fill:#2c3e50;fill-opacity:1;stroke:none;stroke-width:9.64304256;stroke-miterlimit:4;stroke-dasharray:none;stroke-opacity:1"/>
      <g id="g32-6-6" style="fill:#2c3e50;fill-opacity:1;stroke:none;stroke-width:9.64304256;stroke-miterlimit:4;stroke-dasharray:none;stroke-opacity:1"/>
      <g id="g34-1-7" style="fill:#2c3e50;fill-opacity:1;stroke:none;stroke-width:9.64304256;stroke-miterlimit:4;stroke-dasharray:none;stroke-opacity:1"/>
      <g id="g36-9-5" style="fill:#2c3e50;fill-opacity:1;stroke:none;stroke-width:9.64304256;stroke-miterlimit:4;stroke-dasharray:none;stroke-opacity:1"/>
    </g>
  </g>
</svg>