<?xml version="1.0" encoding="utf-8"?>
<svg viewBox="0 0 500 500" xmlns="http://www.w3.org/2000/svg">
  <path d="M 256.782 163.694 C 256.782 173.741 259.667 183.112 264.653 191.028 L 235.005 190.011 C 239.97 181.886 242.827 172.334 242.827 162.116 C 242.827 132.512 218.829 108.512 189.226 108.512 C 159.62 108.512 135.622 132.512 135.622 162.116 C 135.622 191.719 159.62 215.717 189.226 215.717 C 203.984 215.717 217.351 209.752 227.046 200.102 C 241.867 246.506 254.31 249.113 261.265 227.076 L 272.083 200.267 C 281.357 209.411 294.092 215.055 308.147 215.055 C 336.512 215.055 359.506 192.06 359.506 163.694 C 359.506 135.327 336.512 112.331 308.147 112.331 C 279.78 112.331 256.782 135.327 256.782 163.694 Z M 385.165 309.377 C 386.918 346.04 413.412 427.83 413.412 427.83 C 412.084 442.112 388.04 424.629 384.28 408.172 C 365 438.767 336.9 456.317 310.05 466.451 C 326.252 470.361 335.771 479.341 334.402 485.45 C 331.907 496.6 312.829 463.389 307.749 480.68 C 305.909 486.944 295.691 492.459 292.898 488.217 C 280.442 469.31 268.105 501.29 262.994 489.279 C 246.019 449.39 241.576 448.129 229.458 489.96 C 225.759 502.729 212.746 467.855 200.291 486.762 C 197.496 491.002 186.943 486.155 185.101 479.888 C 180.024 462.599 161.56 496.267 159.065 485.117 C 158.036 480.524 163.161 474.308 172.653 469.844 C 146.822 458.733 126.341 439.712 112.173 415.253 C 108.539 430.257 88.581 446.241 87.412 433.682 C 87.412 433.682 109.053 308.914 111.353 272.854 C 111.374 271.555 113.63 223.149 113.672 221.841 C 118.197 83.993 112.697 17.746 134.726 35.169 C 289.686 157.737 363.165 -20.596 366.251 18.421 C 373.308 107.602 374.321 152.845 379.041 223.667 C 384.251 301.81 383.616 281.628 385.165 309.377 Z M 169.731 163.149 C 169.731 152.2 178.607 143.325 189.557 143.325 C 200.504 143.325 209.38 152.2 209.38 163.149 C 209.38 174.096 200.504 182.975 189.557 182.975 C 178.607 182.975 169.731 174.096 169.731 163.149 Z M 288.205 163.93 C 288.205 152.982 297.08 144.104 308.027 144.104 C 318.978 144.104 327.852 152.982 327.852 163.93 C 327.852 174.879 318.978 183.75 308.027 183.75 C 297.08 183.75 288.205 174.879 288.205 163.93" id="path16" style="fill-opacity: 1; fill-rule: nonzero; fill: rgb(255, 255, 255); stroke: rgb(44, 62, 80); stroke-width: 5px;"/>
  <circle r="28.48" cy="164.409" cx="308.881" id="path5282" style="opacity: 1; fill-opacity: 1; fill-rule: evenodd; stroke: rgb(44, 62, 80); stroke-miterlimit: 4; stroke-dasharray: none; stroke-opacity: 1; fill: rgb(255, 255, 255); stroke-width: 13px;"/>
  <circle r="28.48" cy="163.376" cx="189.623" id="path5282-5" style="opacity: 1; fill-opacity: 1; fill-rule: evenodd; stroke: rgb(44, 62, 80); stroke-miterlimit: 4; stroke-dasharray: none; stroke-opacity: 1; fill: rgb(255, 255, 255); stroke-width: 13px;"/>
</svg>