<?xml version="1.0" encoding="utf-8"?>
<svg viewBox="560.5175 -244.7892 42.3725 42.3373" width="42.3725" height="42.3373" xmlns="http://www.w3.org/2000/svg">
  <g transform="matrix(0.991209, 0, 0, 0.991209, 5.131725, -1.935023)">
    <g transform="matrix(1, 0, 0, 1, 554.199402, -256.645905)" id="layer1-61-3-6" style="opacity:1;fill:#5ac9b6;fill-opacity:1">
      <circle r="21.168638" cy="33.02533" cx="27.486773" id="path4149-8-7-0" style="fill:#5ac9b6;fill-opacity:1;fill-rule:evenodd;stroke:none;stroke-width:0;stroke-linecap:butt;stroke-linejoin:miter;stroke-miterlimit:4;stroke-dasharray:none;stroke-opacity:1"/>
    </g>
    <path id="path4149-1-2-9-6-4" d="M 590.064 -239.217 L 572.48 -209.061 L 582.582 -202.494 C 593.923 -202.955 602.883 -212.28 602.89 -223.631 C 602.882 -226.519 602.282 -229.376 601.129 -232.024 L 590.064 -239.217 L 590.064 -239.217 Z" style="opacity:1;fill:#30857b;fill-opacity:1;fill-rule:evenodd;stroke:none;stroke-width:0;stroke-linecap:butt;stroke-linejoin:miter;stroke-miterlimit:4;stroke-dasharray:none;stroke-opacity:1"/>
    <g style="opacity:1" id="g4285-8-2" transform="matrix(1, 0, 0, 1, 549.561707, -256.027924)">
      <path d="m 23.834038,18.073663 15.842969,0 0,27.57024 -15.842969,0 z" style="color:#000000;clip-rule:nonzero;display:inline;overflow:visible;visibility:visible;opacity:1;isolation:auto;mix-blend-mode:normal;color-interpolation:sRGB;color-interpolation-filters:linearRGB;solid-color:#000000;solid-opacity:1;fill:#ffffff;fill-opacity:1;fill-rule:nonzero;stroke:#000000;stroke-width:3.13000011;stroke-linecap:round;stroke-linejoin:round;stroke-miterlimit:4;stroke-dasharray:none;stroke-dashoffset:0;stroke-opacity:1;color-rendering:auto;image-rendering:auto;shape-rendering:auto;text-rendering:auto;enable-background:accumulate" id="rect5882-2-7-5"/>
      <circle r="1.2779126" cy="45.631516" cx="31.846432" id="path5917-9-2-6" style="fill:#ffffff;fill-opacity:1;fill-rule:evenodd;stroke:#ffffff;stroke-width:0;stroke-linecap:butt;stroke-linejoin:miter;stroke-miterlimit:4;stroke-dasharray:none;stroke-opacity:1"/>
      <rect y="17.19969" x="30.278252" height="0.45454547" width="3.1136363" id="rect5921-21-4-5" style="color:#000000;clip-rule:nonzero;display:inline;overflow:visible;visibility:visible;opacity:1;isolation:auto;mix-blend-mode:normal;color-interpolation:sRGB;color-interpolation-filters:linearRGB;solid-color:#000000;solid-opacity:1;fill:#ffffff;fill-opacity:1;fill-rule:nonzero;stroke:#000000;stroke-width:0.2;stroke-linecap:butt;stroke-linejoin:miter;stroke-miterlimit:4;stroke-dasharray:none;stroke-dashoffset:0;stroke-opacity:1;color-rendering:auto;image-rendering:auto;shape-rendering:auto;text-rendering:auto;enable-background:accumulate"/>
    </g>
    <path style="fill:#ff0c0c;fill-opacity:1" d="M 577.519 -222.163 L 577.519 -223.513 C 577.519 -223.666 577.573 -223.797 577.681 -223.904 C 577.788 -224.012 577.919 -224.066 578.072 -224.066 C 578.226 -224.066 578.358 -224.012 578.467 -223.904 C 578.577 -223.797 578.632 -223.666 578.632 -223.513 L 578.632 -222.163 C 578.632 -221.408 578.906 -220.762 579.453 -220.225 C 580 -219.689 580.66 -219.42 581.431 -219.42 C 582.198 -219.42 582.854 -219.689 583.399 -220.225 C 583.945 -220.762 584.217 -221.408 584.217 -222.163 L 584.217 -223.513 C 584.217 -223.666 584.272 -223.797 584.382 -223.904 C 584.492 -224.012 584.624 -224.066 584.777 -224.066 C 584.931 -224.066 585.062 -224.012 585.172 -223.904 C 585.282 -223.797 585.337 -223.666 585.337 -223.513 L 585.337 -222.163 C 585.337 -221.205 585.019 -220.369 584.382 -219.653 C 583.746 -218.938 582.955 -218.508 582.009 -218.363 L 582.009 -217.822 L 583.751 -217.822 C 583.904 -217.822 584.037 -217.768 584.149 -217.66 C 584.261 -217.552 584.317 -217.424 584.317 -217.274 C 584.317 -217.121 584.262 -216.99 584.152 -216.882 C 584.042 -216.775 583.908 -216.721 583.751 -216.721 L 579.148 -216.721 C 578.995 -216.721 578.864 -216.775 578.757 -216.882 C 578.649 -216.99 578.595 -217.121 578.595 -217.274 C 578.595 -217.424 578.649 -217.552 578.757 -217.66 C 578.864 -217.768 578.995 -217.822 579.148 -217.822 L 580.896 -217.822 L 580.896 -218.357 C 580.27 -218.439 579.699 -218.659 579.183 -219.016 C 578.666 -219.372 578.26 -219.827 577.964 -220.381 C 577.667 -220.935 577.519 -221.528 577.519 -222.163 L 577.519 -222.163 Z M 579.36 -222.225 L 579.36 -226.989 C 579.36 -227.553 579.562 -228.034 579.966 -228.432 C 580.371 -228.83 580.859 -229.029 581.431 -229.029 C 581.999 -229.029 582.484 -228.83 582.886 -228.432 C 583.289 -228.034 583.49 -227.553 583.49 -226.989 L 583.49 -222.225 C 583.49 -221.661 583.289 -221.18 582.886 -220.782 C 582.484 -220.384 581.999 -220.185 581.431 -220.185 C 580.859 -220.185 580.371 -220.384 579.966 -220.782 C 579.562 -221.18 579.36 -221.661 579.36 -222.225 Z" id="path7546"/>
  </g>
</svg>