<?xml version="1.0" encoding="utf-8"?>
<svg viewBox="889.9444 -83.7175 42.3727 42.3373" width="42.3727" height="42.3373" xmlns="http://www.w3.org/2000/svg">
  <g transform="matrix(1, 0, 0, 1, 883.626220703125, -95.57418060302734)" id="layer1-61-3-6" style="opacity:1;fill:#5ac9b6;fill-opacity:1">
    <circle r="21.168638" cy="33.02533" cx="27.486773" id="path4149-8-7-0" style="fill-rule: evenodd; stroke: none; stroke-width: 0; stroke-linecap: butt; stroke-linejoin: miter; stroke-miterlimit: 4; stroke-dasharray: none; stroke-opacity: 1; fill: rgb(0, 0, 0); fill-opacity: 0.27;"/>
  </g>
  <path id="path4149-1-2-9-6-4" d="M 919.491 -78.145 L 901.907 -47.989 L 912.008 -41.423 C 923.35 -41.884 932.309 -51.209 932.317 -62.559 C 932.308 -65.448 931.709 -68.304 930.555 -70.952 L 919.491 -78.145 Z" style="opacity: 1; fill-rule: evenodd; stroke: none; stroke-width: 0; stroke-linecap: butt; stroke-linejoin: miter; stroke-miterlimit: 4; stroke-dasharray: none; stroke-opacity: 1; fill-opacity: 0.26;"/>
  <g style="opacity:1" id="g4285-8-2" transform="matrix(1, 0, 0, 1, 878.988525390625, -94.95626068115234)">
    <path d="m 23.834038,18.073663 15.842969,0 0,27.57024 -15.842969,0 z" style="color:#000000;clip-rule:nonzero;display:inline;overflow:visible;visibility:visible;opacity:1;isolation:auto;mix-blend-mode:normal;color-interpolation:sRGB;color-interpolation-filters:linearRGB;solid-color:#000000;solid-opacity:1;fill:#ffffff;fill-opacity:1;fill-rule:nonzero;stroke:#000000;stroke-width:3.13000011;stroke-linecap:round;stroke-linejoin:round;stroke-miterlimit:4;stroke-dasharray:none;stroke-dashoffset:0;stroke-opacity:1;color-rendering:auto;image-rendering:auto;shape-rendering:auto;text-rendering:auto;enable-background:accumulate" id="rect5882-2-7-5"/>
    <circle r="1.2779126" cy="45.631516" cx="31.846432" id="path5917-9-2-6" style="fill:#ffffff;fill-opacity:1;fill-rule:evenodd;stroke:#ffffff;stroke-width:0;stroke-linecap:butt;stroke-linejoin:miter;stroke-miterlimit:4;stroke-dasharray:none;stroke-opacity:1"/>
    <rect y="17.19969" x="30.278252" height="0.45454547" width="3.1136363" id="rect5921-21-4-5" style="color:#000000;clip-rule:nonzero;display:inline;overflow:visible;visibility:visible;opacity:1;isolation:auto;mix-blend-mode:normal;color-interpolation:sRGB;color-interpolation-filters:linearRGB;solid-color:#000000;solid-opacity:1;fill:#ffffff;fill-opacity:1;fill-rule:nonzero;stroke:#000000;stroke-width:0.2;stroke-linecap:butt;stroke-linejoin:miter;stroke-miterlimit:4;stroke-dasharray:none;stroke-dashoffset:0;stroke-opacity:1;color-rendering:auto;image-rendering:auto;shape-rendering:auto;text-rendering:auto;enable-background:accumulate"/>
  </g>
  <path style="fill:#ff0c0c;fill-opacity:1" d="M 906.946 -61.091 L 906.946 -62.441 C 906.946 -62.594 906.999 -62.725 907.107 -62.833 C 907.215 -62.941 907.346 -62.994 907.499 -62.994 C 907.653 -62.994 907.784 -62.941 907.894 -62.833 C 908.004 -62.725 908.059 -62.594 908.059 -62.441 L 908.059 -61.091 C 908.059 -60.337 908.333 -59.691 908.88 -59.154 C 909.427 -58.617 910.086 -58.348 910.858 -58.348 C 911.625 -58.348 912.281 -58.617 912.826 -59.154 C 913.371 -59.691 913.644 -60.337 913.644 -61.091 L 913.644 -62.441 C 913.644 -62.594 913.699 -62.725 913.809 -62.833 C 913.919 -62.941 914.05 -62.994 914.204 -62.994 C 914.357 -62.994 914.489 -62.941 914.599 -62.833 C 914.709 -62.725 914.764 -62.594 914.764 -62.441 L 914.764 -61.091 C 914.764 -60.134 914.445 -59.297 913.809 -58.582 C 913.172 -57.866 912.381 -57.436 911.436 -57.291 L 911.436 -56.75 L 913.178 -56.75 C 913.331 -56.75 913.464 -56.696 913.576 -56.588 C 913.688 -56.481 913.744 -56.352 913.744 -56.203 C 913.744 -56.049 913.689 -55.919 913.579 -55.811 C 913.469 -55.703 913.335 -55.649 913.178 -55.649 L 908.575 -55.649 C 908.422 -55.649 908.291 -55.703 908.183 -55.811 C 908.075 -55.919 908.022 -56.049 908.022 -56.203 C 908.022 -56.352 908.075 -56.481 908.183 -56.588 C 908.291 -56.696 908.422 -56.75 908.575 -56.75 L 910.323 -56.75 L 910.323 -57.285 C 909.697 -57.368 909.126 -57.588 908.609 -57.944 C 908.093 -58.301 907.687 -58.756 907.39 -59.309 C 907.094 -59.863 906.946 -60.457 906.946 -61.091 Z M 908.787 -61.154 L 908.787 -65.918 C 908.787 -66.482 908.989 -66.963 909.393 -67.361 C 909.797 -67.759 910.285 -67.958 910.858 -67.958 C 911.426 -67.958 911.911 -67.759 912.313 -67.361 C 912.715 -66.963 912.916 -66.482 912.916 -65.918 L 912.916 -61.154 C 912.916 -60.59 912.715 -60.109 912.313 -59.711 C 911.911 -59.313 911.426 -59.113 910.858 -59.113 C 910.285 -59.113 909.797 -59.313 909.393 -59.711 C 908.989 -60.109 908.787 -60.59 908.787 -61.154 Z" id="path7546"/>
</svg>