<?xml version="1.0" encoding="utf-8"?>
<svg viewBox="924.4933 -661.5907 78.2092 78.2092" width="78.2092" height="78.2092" xmlns="http://www.w3.org/2000/svg">
  <g transform="matrix(1.771488, 0, 0, 1.771488, 914.721802, -680.841858)" id="layer1-61-3-6-1-9-7-4-29-8-5-6-11-1-2-3" style="opacity:1;fill:#3b97d3;fill-opacity:1;stroke:none;stroke-width:1.50003576;stroke-miterlimit:4;stroke-dasharray:none;stroke-opacity:1">
    <circle r="21.168638" cy="33.02533" cx="27.486773" id="path4149-8-7-0-3-3-3-6-3-1-0-0-7-9-1-7" style="fill:#3b97d3;fill-opacity:1;fill-rule:evenodd;stroke:none;stroke-width:1.50003576;stroke-linecap:butt;stroke-linejoin:miter;stroke-miterlimit:4;stroke-dasharray:none;stroke-opacity:1"/>
  </g>
  <path style="fill:#1a4f72;fill-opacity:1;fill-rule:evenodd;stroke:none;stroke-width:1.21592784px;stroke-linecap:butt;stroke-linejoin:miter;stroke-opacity:1" d="M 959.606 -646.416 L 950.716 -630.581 L 964.234 -599.48 L 980.087 -588.776 C 984.552 -590.995 988.529 -594.082 991.786 -597.856 L 993.159 -599.588 C 994.152 -600.88 995.061 -602.234 995.878 -603.644 L 998.231 -608.5 C 999.404 -611.455 1000.198 -614.548 1000.591 -617.704 L 959.606 -646.416 Z" id="path5444-6-7"/>
  <path d="M 981.681 -603.551 C 981.525 -603.024 981.222 -602.364 980.776 -601.573 C 980.328 -600.781 979.925 -600.173 979.565 -599.748 C 978.865 -598.894 977.367 -598.212 975.071 -597.704 C 972.939 -597.252 970.975 -597.293 969.179 -597.826 C 968.651 -597.983 968.149 -598.169 967.671 -598.385 C 967.194 -598.601 966.668 -598.89 966.096 -599.251 C 965.523 -599.612 965.101 -599.891 964.83 -600.089 C 964.559 -600.285 964.077 -600.647 963.383 -601.171 C 962.689 -601.696 962.262 -602.013 962.104 -602.124 C 960.393 -603.375 958.925 -604.693 957.699 -606.076 C 955.656 -608.361 953.698 -611.231 951.823 -614.687 C 949.949 -618.143 948.611 -621.35 947.809 -624.307 C 947.318 -626.089 947.014 -628.039 946.899 -630.155 C 946.892 -630.348 946.859 -630.878 946.797 -631.747 C 946.736 -632.615 946.697 -633.216 946.679 -633.551 C 946.661 -633.885 946.657 -634.391 946.667 -635.068 C 946.677 -635.745 946.721 -636.342 946.8 -636.861 C 946.88 -637.379 946.998 -637.902 947.154 -638.429 C 947.687 -640.225 948.724 -641.894 950.264 -643.434 C 951.943 -645.082 953.332 -645.967 954.43 -646.086 C 954.981 -646.156 955.711 -646.163 956.618 -646.107 C 957.526 -646.05 958.244 -645.944 958.77 -645.787 C 959.044 -645.706 959.24 -645.616 959.36 -645.517 C 959.676 -645.295 959.974 -644.4 960.252 -642.83 C 960.356 -642.395 960.493 -641.781 960.661 -640.988 C 960.83 -640.194 960.987 -639.472 961.135 -638.823 C 961.282 -638.174 961.429 -637.562 961.578 -636.987 C 961.614 -636.891 961.711 -636.597 961.873 -636.103 C 962.035 -635.608 962.142 -635.199 962.195 -634.876 C 962.247 -634.552 962.233 -634.254 962.152 -633.98 C 962.036 -633.589 961.614 -633.184 960.883 -632.763 C 960.152 -632.343 959.388 -631.985 958.589 -631.69 C 957.789 -631.397 957.031 -631.058 956.312 -630.677 C 955.593 -630.295 955.182 -629.929 955.077 -629.577 C 955.025 -629.401 955.009 -629.167 955.028 -628.875 C 955.047 -628.582 955.071 -628.357 955.099 -628.2 C 955.127 -628.043 955.194 -627.768 955.301 -627.376 C 955.407 -626.983 955.465 -626.764 955.472 -626.719 C 956.163 -623.603 957.181 -620.805 958.528 -618.323 C 959.873 -615.842 961.664 -613.462 963.899 -611.185 C 963.932 -611.153 964.085 -610.986 964.355 -610.682 C 964.627 -610.379 964.82 -610.173 964.937 -610.064 C 965.053 -609.955 965.229 -609.813 965.464 -609.637 C 965.699 -609.461 965.904 -609.347 966.079 -609.295 C 966.43 -609.19 966.963 -609.335 967.674 -609.73 C 968.387 -610.124 969.084 -610.576 969.766 -611.085 C 970.448 -611.594 971.165 -612.041 971.916 -612.424 C 972.667 -612.806 973.237 -612.94 973.627 -612.824 C 973.901 -612.743 974.159 -612.592 974.401 -612.371 C 974.644 -612.151 974.929 -611.838 975.255 -611.433 C 975.581 -611.029 975.775 -610.785 975.835 -610.703 C 976.237 -610.265 976.669 -609.808 977.132 -609.33 C 977.597 -608.853 978.115 -608.327 978.689 -607.753 C 979.262 -607.179 979.703 -606.73 980.01 -606.405 C 981.175 -605.316 981.762 -604.579 981.776 -604.192 C 981.794 -604.038 981.762 -603.825 981.681 -603.551 Z" id="path3017-7-8" style="fill:#ff0c0c;fill-opacity:1;stroke:#2c3e4f;stroke-width:1.824;stroke-miterlimit:4;stroke-dasharray:none;stroke-opacity:1"/>
</svg>