<?xml version="1.0" encoding="utf-8"?>
<svg viewBox="880.0005 -580.1698 78.2092 78.2092" width="78.2092" height="78.2092" xmlns="http://www.w3.org/2000/svg">
  <g transform="matrix(1.771488, 0, 0, 1.771488, 870.591248, -599.545776)" id="layer1-61-3-6-1-9-7-4-29-8-5-6-11-1-2-3-8" style="opacity:1;fill:#000000;fill-opacity:0.27058825;stroke:none;stroke-width:1.50003576;stroke-miterlimit:4;stroke-dasharray:none;stroke-opacity:1">
    <circle r="21.168638" cy="33.02533" cx="27.486773" id="path4149-8-7-0-3-3-3-6-3-1-0-0-7-9-1-7-4" style="fill:#000000;fill-opacity:0.27058825;fill-rule:evenodd;stroke:none;stroke-width:1.50003576;stroke-linecap:butt;stroke-linejoin:miter;stroke-miterlimit:4;stroke-dasharray:none;stroke-opacity:1"/>
  </g>
  <path style="fill:#000100;fill-opacity:0.25882354;fill-rule:evenodd;stroke:none;stroke-width:1.21592784px;stroke-linecap:butt;stroke-linejoin:miter;stroke-opacity:1" d="M 915.475 -565.12 L 906.584 -549.285 L 920.103 -518.184 L 935.956 -507.48 C 940.421 -509.699 944.398 -512.786 947.655 -516.56 L 949.028 -518.292 C 950.021 -519.584 950.93 -520.938 951.747 -522.348 L 954.1 -527.204 C 955.273 -530.159 956.067 -533.252 956.46 -536.408 L 915.475 -565.12 Z" id="path5444-6-7-1"/>
  <path d="M 937.55 -522.255 C 937.394 -521.728 937.091 -521.068 936.645 -520.277 C 936.197 -519.485 935.794 -518.877 935.434 -518.452 C 934.734 -517.598 933.235 -516.916 930.939 -516.408 C 928.808 -515.956 926.844 -515.997 925.048 -516.53 C 924.52 -516.687 924.018 -516.873 923.54 -517.089 C 923.063 -517.305 922.537 -517.594 921.965 -517.955 C 921.391 -518.316 920.97 -518.595 920.699 -518.792 C 920.428 -518.989 919.946 -519.35 919.252 -519.875 C 918.558 -520.4 918.131 -520.717 917.973 -520.828 C 916.262 -522.079 914.794 -523.397 913.568 -524.779 C 911.525 -527.064 909.567 -529.935 907.692 -533.391 C 905.818 -536.847 904.48 -540.054 903.678 -543.011 C 903.187 -544.793 902.883 -546.743 902.767 -548.859 C 902.761 -549.052 902.728 -549.582 902.666 -550.45 C 902.605 -551.319 902.566 -551.92 902.548 -552.255 C 902.53 -552.589 902.526 -553.095 902.536 -553.772 C 902.546 -554.449 902.59 -555.046 902.669 -555.564 C 902.749 -556.083 902.867 -556.606 903.023 -557.133 C 903.556 -558.929 904.593 -560.598 906.133 -562.138 C 907.812 -563.786 909.201 -564.671 910.299 -564.79 C 910.85 -564.86 911.58 -564.867 912.487 -564.811 C 913.395 -564.754 914.113 -564.648 914.639 -564.491 C 914.913 -564.41 915.109 -564.32 915.229 -564.221 C 915.545 -563.999 915.843 -563.104 916.121 -561.534 C 916.225 -561.099 916.362 -560.485 916.53 -559.692 C 916.698 -558.898 916.856 -558.176 917.004 -557.527 C 917.151 -556.878 917.298 -556.266 917.447 -555.691 C 917.483 -555.595 917.58 -555.301 917.742 -554.807 C 917.904 -554.312 918.011 -553.903 918.064 -553.579 C 918.116 -553.256 918.102 -552.958 918.021 -552.683 C 917.905 -552.293 917.482 -551.888 916.752 -551.467 C 916.021 -551.047 915.257 -550.689 914.458 -550.394 C 913.658 -550.1 912.9 -549.762 912.181 -549.381 C 911.462 -548.999 911.051 -548.633 910.946 -548.281 C 910.894 -548.105 910.878 -547.871 910.897 -547.579 C 910.916 -547.286 910.94 -547.061 910.968 -546.904 C 910.996 -546.747 911.063 -546.472 911.17 -546.079 C 911.276 -545.687 911.334 -545.468 911.341 -545.423 C 912.032 -542.307 913.05 -539.509 914.397 -537.027 C 915.742 -534.546 917.533 -532.166 919.768 -529.888 C 919.801 -529.857 919.954 -529.69 920.224 -529.386 C 920.496 -529.083 920.689 -528.876 920.806 -528.768 C 920.922 -528.659 921.098 -528.517 921.333 -528.341 C 921.568 -528.165 921.773 -528.051 921.948 -527.999 C 922.299 -527.894 922.832 -528.039 923.543 -528.434 C 924.256 -528.828 924.952 -529.28 925.635 -529.789 C 926.317 -530.298 927.034 -530.745 927.785 -531.128 C 928.536 -531.51 929.106 -531.644 929.496 -531.528 C 929.77 -531.447 930.028 -531.296 930.27 -531.075 C 930.513 -530.855 930.798 -530.542 931.124 -530.137 C 931.45 -529.733 931.644 -529.489 931.704 -529.407 C 932.106 -528.969 932.538 -528.512 933.001 -528.034 C 933.466 -527.557 933.984 -527.031 934.558 -526.457 C 935.131 -525.883 935.572 -525.433 935.878 -525.109 C 937.044 -524.02 937.631 -523.283 937.645 -522.896 C 937.663 -522.742 937.631 -522.529 937.55 -522.255 Z" id="path3017-7-8-4" style="fill:#ff0c0c;fill-opacity:1;stroke:#2c3e4f;stroke-width:1.824;stroke-miterlimit:4;stroke-dasharray:none;stroke-opacity:1"/>
</svg>