<?xml version="1.0" encoding="utf-8"?>
<svg viewBox="359.8274 -462.5645 78.2092 78.2092" width="78.2092" height="78.2092" xmlns="http://www.w3.org/2000/svg">
  <g transform="matrix(1.771488, 0, 0, 1.771488, 349.978821, -482.167358)" id="layer1-61-3-6-1-9-7-4-29-8-5-6-11-1-2-3-7" style="opacity:1;fill:#5ac9b6;fill-opacity:1;stroke:none;stroke-width:1.50003576;stroke-miterlimit:4;stroke-dasharray:none;stroke-opacity:1">
    <circle r="21.168638" cy="33.02533" cx="27.486773" id="path4149-8-7-0-3-3-3-6-3-1-0-0-7-9-1-7-5" style="fill:#5ac9b6;fill-opacity:1;fill-rule:evenodd;stroke:none;stroke-width:1.50003576;stroke-linecap:butt;stroke-linejoin:miter;stroke-miterlimit:4;stroke-dasharray:none;stroke-opacity:1"/>
  </g>
  <path style="fill:#30857b;fill-opacity:1;fill-rule:evenodd;stroke:none;stroke-width:1.21592784px;stroke-linecap:butt;stroke-linejoin:miter;stroke-opacity:1" d="M 394.863 -447.742 L 385.972 -431.906 L 399.491 -400.806 L 415.344 -390.102 C 419.809 -392.321 423.786 -395.408 427.042 -399.181 L 428.416 -400.914 C 429.409 -402.205 430.318 -403.56 431.135 -404.969 L 433.488 -409.826 C 434.661 -412.781 435.455 -415.874 435.848 -419.03 L 394.863 -447.742 Z" id="path5444-6-7-7"/>
  <path d="M 416.938 -404.877 C 416.782 -404.349 416.479 -403.69 416.033 -402.898 C 415.585 -402.107 415.181 -401.499 414.821 -401.074 C 414.122 -400.22 412.623 -399.538 410.327 -399.03 C 408.196 -398.578 406.232 -398.619 404.436 -399.151 C 403.908 -399.308 403.406 -399.495 402.928 -399.711 C 402.451 -399.926 401.925 -400.215 401.353 -400.576 C 400.779 -400.937 400.357 -401.217 400.087 -401.414 C 399.816 -401.611 399.333 -401.972 398.639 -402.496 C 397.945 -403.021 397.519 -403.339 397.361 -403.45 C 395.65 -404.701 394.181 -406.019 392.955 -407.401 C 390.913 -409.686 388.955 -412.556 387.08 -416.013 C 385.206 -419.469 383.867 -422.676 383.066 -425.633 C 382.575 -427.415 382.271 -429.364 382.155 -431.48 C 382.149 -431.674 382.115 -432.204 382.054 -433.072 C 381.993 -433.94 381.954 -434.541 381.936 -434.876 C 381.918 -435.211 381.914 -435.717 381.924 -436.394 C 381.934 -437.071 381.978 -437.668 382.057 -438.186 C 382.137 -438.705 382.255 -439.228 382.411 -439.755 C 382.944 -441.551 383.981 -443.22 385.521 -444.76 C 387.2 -446.407 388.588 -447.292 389.686 -447.412 C 390.238 -447.482 390.968 -447.489 391.875 -447.433 C 392.782 -447.376 393.5 -447.27 394.027 -447.112 C 394.3 -447.032 394.497 -446.942 394.617 -446.843 C 394.933 -446.621 395.231 -445.726 395.509 -444.156 C 395.613 -443.72 395.749 -443.107 395.918 -442.313 C 396.086 -441.52 396.244 -440.798 396.392 -440.149 C 396.539 -439.5 396.686 -438.887 396.835 -438.313 C 396.87 -438.217 396.968 -437.922 397.13 -437.428 C 397.291 -436.934 397.399 -436.525 397.452 -436.201 C 397.504 -435.878 397.49 -435.579 397.408 -435.305 C 397.292 -434.915 396.87 -434.51 396.14 -434.089 C 395.409 -433.668 394.645 -433.311 393.845 -433.016 C 393.046 -432.722 392.288 -432.384 391.568 -432.003 C 390.85 -431.621 390.439 -431.254 390.334 -430.903 C 390.282 -430.727 390.266 -430.492 390.285 -430.2 C 390.304 -429.907 390.328 -429.683 390.356 -429.526 C 390.384 -429.369 390.451 -429.094 390.558 -428.701 C 390.664 -428.309 390.722 -428.089 390.729 -428.045 C 391.42 -424.929 392.438 -422.13 393.785 -419.649 C 395.13 -417.168 396.92 -414.787 399.156 -412.51 C 399.189 -412.479 399.341 -412.311 399.612 -412.008 C 399.884 -411.704 400.077 -411.498 400.193 -411.39 C 400.31 -411.28 400.486 -411.139 400.721 -410.962 C 400.955 -410.787 401.16 -410.672 401.336 -410.621 C 401.687 -410.516 402.22 -410.661 402.931 -411.055 C 403.643 -411.45 404.34 -411.902 405.023 -412.411 C 405.704 -412.92 406.421 -413.366 407.173 -413.749 C 407.924 -414.132 408.494 -414.266 408.884 -414.15 C 409.158 -414.068 409.416 -413.918 409.658 -413.697 C 409.901 -413.477 410.186 -413.163 410.512 -412.758 C 410.838 -412.354 411.032 -412.111 411.092 -412.028 C 411.493 -411.591 411.925 -411.134 412.389 -410.656 C 412.854 -410.179 413.372 -409.652 413.946 -409.079 C 414.519 -408.505 414.959 -408.055 415.266 -407.73 C 416.431 -406.642 417.019 -405.905 417.033 -405.518 C 417.05 -405.364 417.018 -405.15 416.938 -404.877 Z" id="path3017-7-8-3" style="fill:#ff0c0c;fill-opacity:1;stroke:#2c3e4f;stroke-width:1.824;stroke-miterlimit:4;stroke-dasharray:none;stroke-opacity:1"/>
</svg>