<?xml version="1.0" encoding="utf-8"?>
<svg viewBox="1091.2328 582.1989 50.7067 46.2549" width="50.7067" height="46.2549" xmlns="http://www.w3.org/2000/svg">
  <defs>
    <marker orient="auto" refY="0" refX="0" id="Arrow1Lend-8-28-6-9-1-6" style="overflow:visible">
      <path id="path6029-3-35-18-7-9-8" d="M 0,0 5,-5 -12.5,0 5,5 0,0 Z" style="fill:#ffffff;fill-opacity:1;fill-rule:evenodd;stroke:#ffffff;stroke-width:1pt;stroke-opacity:1" transform="matrix(-0.8,0,0,-0.8,-10,0)"/>
    </marker>
  </defs>
  <g transform="matrix(0.976203, 0, 0, 0.976203, 26.96353, 14.807516)">
    <g transform="matrix(1, 0, 0, 1, 1084.914673, 570.342224)" id="layer1-61-3-6-1-9-7-9-1-7" style="opacity:1;fill:#d1d4d0;fill-opacity:1;stroke:#2c3e50;stroke-width:1.5;stroke-miterlimit:4;stroke-dasharray:none;stroke-opacity:1">
      <circle r="21.168638" cy="33.02533" cx="27.486773" id="path4149-8-7-0-3-3-3-4-3-9" style="fill:#d1d4d0;fill-opacity:1;fill-rule:evenodd;stroke:#2c3e50;stroke-width:1.5;stroke-linecap:butt;stroke-linejoin:miter;stroke-miterlimit:4;stroke-dasharray:none;stroke-opacity:1"/>
    </g>
    <g id="g3039-3-9" transform="matrix(-0.01384, 0.012259, 0.012259, 0.01384, 1115.279053, 585.253296)" style="fill:#2c3e50;fill-opacity:1;stroke:none">
      <path style="fill:#2c3e50;fill-opacity:1;stroke:none" id="path3041-0-9" d="m 1536,1280 0,-448 q 0,-26 -19,-45 -19,-19 -45,-19 l -448,0 q -42,0 -59,40 -17,39 14,69 l 138,138 Q 969,1152 768,1152 664,1152 569.5,1111.5 475,1071 406,1002 337,933 296.5,838.5 256,744 256,640 256,536 296.5,441.5 337,347 406,278 475,209 569.5,168.5 664,128 768,128 q 169,0 304,99.5 135,99.5 185,261.5 7,23 30,23 l 199,0 q 16,0 25,-12 10,-13 7,-27 Q 1479,298 1370.5,161 1262,24 1104.5,-52 947,-128 768,-128 612,-128 470,-67 328,-6 225,97 122,200 61,342 0,484 0,640 q 0,156 61,298 61,142 164,245 103,103 245,164 142,61 298,61 147,0 284.5,-55.5 Q 1190,1297 1297,1196 l 130,129 q 29,31 70,14 39,-17 39,-59 z"/>
    </g>
    <g transform="matrix(0.510732, 0, 0, 0.510732, 1117.342163, 600.270142)" id="layer1-61-3-6-1-9-7-2-5-9-7-3" style="opacity:1;fill:#ff0c0c;fill-opacity:1;stroke:none;stroke-width:1.5;stroke-miterlimit:4;stroke-dasharray:none;stroke-opacity:1">
      <circle r="21.168638" cy="34.014256" cx="26.99231" id="path4149-8-7-0-3-3-3-0-6-5-92-2" style="fill:#ff0c0c;fill-opacity:1;fill-rule:evenodd;stroke:none;stroke-width:1.5;stroke-linecap:butt;stroke-linejoin:miter;stroke-miterlimit:4;stroke-dasharray:none;stroke-opacity:1"/>
    </g>
    <path style="opacity:1;fill:none;fill-rule:evenodd;stroke:#ffffff;stroke-width:0.75386399px;stroke-linecap:butt;stroke-linejoin:miter;stroke-opacity:1;marker-end:url(#Arrow1Lend-8-28-6-9-1-6)" d="M 1131.359 619.166 L 1134.182 612.438" id="path6020-8-8-7-6-8"/>
  </g>
</svg>