<?xml version="1.0" encoding="utf-8"?>
<svg viewBox="967.5459 477.6872 42.3373 42.3373" width="42.3373" height="42.3373" xmlns="http://www.w3.org/2000/svg">
  <g transform="matrix(0.944794, 0, 0, 0.944794, 962.64856, 467.598633)" id="layer1-61-3-6-1-9-7-2-4-4-9-3-5-3" style="opacity:1;fill:#d1d4d0;fill-opacity:1;stroke:#2c3e50;stroke-width:1.5;stroke-miterlimit:4;stroke-dasharray:none;stroke-opacity:1">
    <circle r="21.168638" cy="33.02533" cx="27.486773" id="path4149-8-7-0-3-3-3-0-2-1-2-5-9-1" style="fill:#d1d4d0;fill-opacity:1;fill-rule:evenodd;stroke:#2c3e50;stroke-width:1.5;stroke-linecap:butt;stroke-linejoin:miter;stroke-miterlimit:4;stroke-dasharray:none;stroke-opacity:1"/>
  </g>
  <path style="fill-opacity: 1; fill: rgb(255, 255, 255);" d="M 986.869 487.401 C 993.145 486.948 999.566 489.297 1004.047 493.719 C 1004.634 494.324 1004.557 495.381 1003.938 495.935 C 1003.369 496.606 1002.23 496.617 1001.643 495.964 C 997.811 492.275 992.401 490.279 987.088 490.676 C 982.674 490.961 978.398 492.861 975.196 495.906 C 974.912 496.197 974.548 496.436 974.128 496.458 C 973.08 496.581 972.109 495.483 972.336 494.458 C 972.4 494.089 972.637 493.781 972.907 493.537 C 976.656 489.946 981.689 487.741 986.869 487.401 Z" id="path4427"/>
  <path style="fill-opacity: 1; fill: rgb(255, 255, 255);" d="M 986.713 493.556 C 991.521 493.032 996.515 494.805 999.918 498.241 C 1000.45 498.849 1000.384 499.842 999.793 500.387 C 999.254 501.047 998.167 501.122 997.557 500.524 C 995.378 498.376 992.433 497.012 989.378 496.788 C 985.669 496.481 981.88 497.888 979.238 500.501 C 978.629 501.145 977.495 501.071 976.948 500.386 C 976.356 499.829 976.308 498.809 976.875 498.219 C 979.492 495.599 983.032 493.934 986.713 493.556 Z" id="path4429"/>
  <path style="fill:#5ac9b6;fill-opacity:1" d="M 987.423 499.629 C 990.458 499.328 993.596 500.49 995.707 502.687 C 996.285 503.289 996.218 504.325 995.61 504.882 C 995.056 505.549 993.948 505.594 993.347 504.969 C 992.157 503.747 990.508 502.975 988.8 502.882 C 986.864 502.743 984.904 503.508 983.528 504.869 C 983.19 505.251 982.687 505.484 982.172 505.423 C 980.978 505.34 980.15 503.745 980.971 502.788 C 982.633 500.986 984.993 499.871 987.423 499.629 Z" id="path4431"/>
  <path style="fill:#5ac9b6;fill-opacity:1" d="M 987.892 505.3 C 989.846 504.972 991.832 506.586 991.895 508.57 C 992.077 510.514 990.36 512.359 988.408 512.317 C 986.654 512.378 985.028 510.922 984.875 509.177 C 984.624 507.345 986.056 505.511 987.892 505.3 Z" id="path4433"/>
</svg>