<?xml version="1.0" encoding="utf-8"?>
<svg viewBox="882.2868 406.7422 50.8022 44.5722" width="50.8022" height="44.5722" xmlns="http://www.w3.org/2000/svg">
  <defs>
    <marker orient="auto" refY="0" refX="0" id="Arrow1Lend-8-28-6-9-6-72" style="overflow:visible">
      <path id="path6029-3-35-18-7-2-46" d="M 0,0 5,-5 -12.5,0 5,5 0,0 Z" style="fill:#ffffff;fill-opacity:1;fill-rule:evenodd;stroke:#ffffff;stroke-width:1pt;stroke-opacity:1" transform="matrix(-0.8,0,0,-0.8,-10,0)"/>
    </marker>
  </defs>
  <g transform="matrix(0.974367, 0, 0, 0.974367, 23.565212, 11.396185)">
    <g id="g6990" transform="matrix(1, 0, 0, 1, 809.839111, 405.992249)">
      <g style="opacity:1;fill:#d1d4d0;fill-opacity:1;stroke:#2c3e50;stroke-width:1.5;stroke-miterlimit:4;stroke-dasharray:none;stroke-opacity:1" id="layer1-61-3-6-1-9-7-2-6-1" transform="translate(66.129586,-11.106691)">
        <circle style="fill:#d1d4d0;fill-opacity:1;fill-rule:evenodd;stroke:#2c3e50;stroke-width:1.5;stroke-linecap:butt;stroke-linejoin:miter;stroke-miterlimit:4;stroke-dasharray:none;stroke-opacity:1" id="path4149-8-7-0-3-3-3-0-3-7" cx="27.486773" cy="33.02533" r="21.168638"/>
      </g>
      <path d="m 104.30353,22.449989 c -0.48525,0 -0.92334,0.29179 -1.10719,0.73946 l -0.40851,0.98169 -1.13837,-7.57622 c -0.0743,-0.61076 -0.59716,-1.06882 -1.21511,-1.05763 -0.613154,0.012 -1.122384,0.48764 -1.171954,1.1016 l -0.43888,3.30573 -0.5364,-9.10043 c -0.0488,-0.62274 -0.56759,-1.1079904 -1.19274,-1.1079904 -0.62754,-0.002 -1.14876,0.4812504 -1.19752,1.1048004 l -0.36054,6.63342 -0.61235,-9.7225104 c -0.04,-0.63234 -0.56199,-1.12478 -1.19753,-1.12478 -0.63394,0.002 -1.15676,0.49404 -1.19513,1.12717 l -0.52682,8.6337104 -0.44527,-6.8366204 c -0.0408,-0.63233 -0.56199,-1.12158 -1.19433,-1.12158 -0.63314,0 -1.15596,0.48765 -1.19753,1.11999 l -0.5444,8.2707704 -0.42689,-3.87492 c -0.0472,-0.62355 -0.56199,-1.10799 -1.18633,-1.11279 -0.62595,-0.004 -1.15037,0.47246 -1.20393,1.0968 l -0.79861,7.26525 -0.18387,-1.25988 c -0.0783,-0.52202 -0.48445,-0.93212 -1.00727,-1.01127 -0.52361,-0.0791 -1.03444,0.19266 -1.26068,0.66991 l -1.35741,2.85552 -4.5303,0 0,2.39666 5.28815,0 c 0.45087,0 0.86577,-0.25422 1.06882,-0.65553 l 1.10799,5.5433 c 0.0887,0.60037 0.61555,1.04165 1.22151,1.02326 0.60836,-0.0184 1.1056,-0.49084 1.15996,-1.0936 l 0.38691,-2.49353 0.58518,8.07971 c 0.048,0.62834 0.57078,1.11519 1.20072,1.11199 0.63074,-0.002 1.15116,-0.49244 1.19193,-1.11918 l 0.47965,-7.26591 0.49245,7.56569 c 0.0408,0.63074 0.56518,1.12078 1.19832,1.11918 0.63394,0 1.15516,-0.49404 1.19433,-1.12478 l 0.50683,-8.30115 0.46526,7.40421 c 0.0384,0.62594 0.5588,1.11758 1.18794,1.12238 0.62834,0.006 1.15436,-0.48125 1.20312,-1.10639 l 0.47006,-6.0468 0.50523,2.64476 c 0.0464,0.62514 0.56359,1.10719 1.18793,1.10879 0.62675,0.003 1.14877,-0.47645 1.19913,-1.0992 l 0.705084,-4.55776 0.275,0.30232 c 0.0632,0.54361 0.48445,0.97049 1.02646,1.04724 0.542,0.0743 1.06242,-0.22384 1.27027,-0.72907 l 1.85785,-2.47754 5.2082,0 0,-2.39745 -6.00842,0 z" id="path11-8-5" style="fill:#2c3e50;fill-opacity:1;stroke:none;stroke-opacity:1;marker-mid:"/>
      <g style="opacity:1;fill:#ff0c0c;fill-opacity:1;stroke:none;stroke-width:1.5;stroke-miterlimit:4;stroke-dasharray:none;stroke-opacity:1" id="layer1-61-3-6-1-9-7-2-5-9-8-4-3" transform="matrix(0.51073174,0,0,0.51073174,98.400046,17.643659)">
        <circle style="fill:#ff0c0c;fill-opacity:1;fill-rule:evenodd;stroke:none;stroke-width:1.5;stroke-linecap:butt;stroke-linejoin:miter;stroke-miterlimit:4;stroke-dasharray:none;stroke-opacity:1" id="path4149-8-7-0-3-3-3-0-6-5-9-2-3" cx="27.486773" cy="33.02533" r="21.168638"/>
      </g>
      <path id="path6020-8-8-7-9-7" d="m 112.77032,35.641729 2.82333,-6.72823" style="opacity:1;fill:none;fill-rule:evenodd;stroke:#ffffff;stroke-width:0.75386399px;stroke-linecap:butt;stroke-linejoin:miter;stroke-opacity:1;marker-end:url(#Arrow1Lend-8-28-6-9-6-72);marker-mid:"/>
    </g>
  </g>
</svg>