<?xml version="1.0" encoding="utf-8"?>
<svg viewBox="968.879 269.437 50.7586 44.5743" width="50.7586" height="44.5743" xmlns="http://www.w3.org/2000/svg">
  <defs>
    <marker orient="auto" refY="0" refX="0" id="Arrow1Lend-8-28-6-9-2-6-6" style="overflow:visible">
      <path id="path6029-3-35-18-7-65-5-1" d="M 0,0 5,-5 -12.5,0 5,5 0,0 Z" style="fill:#ffffff;fill-opacity:1;fill-rule:evenodd;stroke:#ffffff;stroke-width:1pt;stroke-opacity:1" transform="matrix(-0.8,0,0,-0.8,-10,0)"/>
    </marker>
  </defs>
  <g transform="matrix(0.975205, 0, 0, 0.975205, 24.995939, 7.620089)">
    <circle style="fill: rgb(209, 212, 208); fill-opacity: 1; fill-rule: evenodd; stroke: rgb(44, 62, 80); stroke-width: 1.5; stroke-linecap: butt; stroke-linejoin: miter; stroke-miterlimit: 4; stroke-dasharray: none; stroke-opacity: 1; opacity: 1;" id="circle-3" cx="990.048" cy="290.606" r="21.169"/>
    <path d="M 1000.735 291.137 C 1000.25 291.137 999.811 291.429 999.628 291.877 L 999.219 292.859 L 998.081 285.282 C 998.006 284.672 997.484 284.214 996.866 284.225 C 996.252 284.237 995.743 284.712 995.694 285.326 L 995.255 288.632 L 994.718 279.532 C 994.67 278.909 994.151 278.424 993.526 278.424 C 992.898 278.422 992.377 278.905 992.328 279.528 L 991.968 286.162 L 991.355 276.439 C 991.315 275.807 990.793 275.315 990.158 275.315 C 989.524 275.317 989.001 275.809 988.963 276.442 L 988.436 285.075 L 987.99 278.239 C 987.95 277.607 987.429 277.117 986.796 277.117 C 986.163 277.117 985.64 277.605 985.599 278.237 L 985.054 286.508 L 984.627 282.633 C 984.58 282.01 984.065 281.525 983.441 281.52 C 982.815 281.516 982.291 281.993 982.237 282.617 L 981.438 289.882 L 981.255 288.622 C 981.176 288.1 980.77 287.69 980.247 287.611 C 979.724 287.532 979.213 287.804 978.987 288.281 L 977.629 291.137 L 973.099 291.137 L 973.099 293.533 L 978.387 293.533 C 978.838 293.533 979.253 293.279 979.456 292.878 L 980.564 298.421 C 980.653 299.021 981.179 299.463 981.785 299.444 C 982.394 299.426 982.891 298.954 982.945 298.351 L 983.332 295.857 L 983.917 303.937 C 983.965 304.565 984.488 305.052 985.118 305.049 C 985.749 305.047 986.269 304.556 986.31 303.93 L 986.79 296.664 L 987.282 304.23 C 987.323 304.86 987.847 305.35 988.481 305.349 C 989.114 305.349 989.636 304.855 989.675 304.224 L 990.182 295.923 L 990.647 303.327 C 990.685 303.953 991.206 304.445 991.835 304.449 C 992.463 304.455 992.989 303.968 993.038 303.343 L 993.508 297.296 L 994.013 299.941 C 994.06 300.566 994.577 301.048 995.201 301.05 C 995.828 301.053 996.35 300.573 996.4 299.951 L 997.105 295.393 L 997.38 295.695 C 997.444 296.239 997.865 296.666 998.407 296.742 C 998.949 296.817 999.469 296.518 999.677 296.013 L 1001.535 293.536 L 1006.743 293.536 L 1006.743 291.138 L 1000.735 291.138 L 1000.735 291.137 Z" id="path-7" style="fill:#2c3e50;fill-opacity:1;stroke:none;stroke-opacity:1;marker-mid:"/>
    <g transform="matrix(0.510732, 0, 0, 0.510732, 994.787659, 286.332703)" id="g-4" style="opacity:1;fill:#ff0a0c;fill-opacity:1;stroke:none;stroke-width:1.5;stroke-miterlimit:4;stroke-dasharray:none;stroke-opacity:1">
      <circle r="21.168638" cy="33.02533" cx="27.486773" id="circle-4" style="fill:#ff0a0c;fill-opacity:1;fill-rule:evenodd;stroke:none;stroke-width:1.5;stroke-linecap:butt;stroke-linejoin:miter;stroke-miterlimit:4;stroke-dasharray:none;stroke-opacity:1"/>
    </g>
    <g id="g-5" transform="matrix(1.033471, 0, 0, 1.033471, 638.055359, -111.924637)" style="fill:#ffffff;fill-opacity:1;stroke:none">
      <path style="fill:#ffffff;fill-opacity:1;stroke:none;stroke-width:0.19571705;stroke-miterlimit:4;stroke-dasharray:none;stroke-opacity:1" d="m 352.35228,397.71034 -0.47193,-0.47833 0.44194,-0.41434 c 1.53116,-1.43555 3.42702,-2.18312 5.52427,-2.17832 2.08656,0.005 4.00989,0.78887 5.51906,2.25001 l 0.37359,0.3617 -0.47921,0.47922 -0.47922,0.47921 -0.45977,-0.42567 c -1.10553,-1.02355 -2.33978,-1.58537 -3.85321,-1.75395 -1.8699,-0.20828 -3.76628,0.43589 -5.1635,1.75395 -0.23603,0.22267 -0.44062,0.40485 -0.45462,0.40485 -0.014,0 -0.23784,-0.21525 -0.4974,-0.47833 z" id="path-8"/>
      <path style="fill:#ffffff;fill-opacity:1;stroke:none;stroke-width:0.19571705;stroke-miterlimit:4;stroke-dasharray:none;stroke-opacity:1" d="m 360.44439,399.72313 c -0.44062,-0.42973 -1.17291,-0.83064 -1.77708,-0.9729 -0.19098,-0.045 -0.61714,-0.0785 -0.94702,-0.0746 -1.0267,0.0123 -1.97247,0.40886 -2.69247,1.12886 l -0.29175,0.29175 -0.44781,-0.44781 -0.44781,-0.44781 0.31421,-0.32246 c 1.36455,-1.40044 3.5308,-1.87746 5.41298,-1.19198 0.76409,0.27828 1.8071,0.98194 2.08567,1.40709 0.0957,0.14599 0.0869,0.16044 -0.35489,0.58532 l -0.45297,0.43564 -0.40106,-0.39114 z" id="path-9"/>
      <path style="fill:#ffffff;fill-opacity:1;stroke:none;stroke-width:0.19571705;stroke-miterlimit:4;stroke-dasharray:none;stroke-opacity:1" d="m 358.91985,401.99589 c 0,-0.13787 -0.34284,-0.47943 -0.59717,-0.59496 -0.53118,-0.24128 -1.1372,-0.10499 -1.53187,0.34451 l -0.19148,0.21808 -0.48186,-0.48471 -0.48187,-0.48471 0.26895,-0.25648 c 0.38624,-0.36835 0.59965,-0.5004 1.06066,-0.65629 0.56796,-0.19204 1.32521,-0.15821 1.84958,0.0827 0.4195,0.19269 0.80288,0.47818 0.9843,0.73295 l 0.12402,0.17417 -0.50163,0.49869 c -0.2759,0.27428 -0.50163,0.46602 -0.50163,0.4261 z" id="path-10"/>
      <path style="fill:#ffffff;fill-opacity:1;stroke:none;stroke-width:0.19571705;stroke-miterlimit:4;stroke-dasharray:none;stroke-opacity:1" d="m 357.34148,403.57915 c -0.2621,-0.16418 -0.40022,-0.4051 -0.42753,-0.74569 -0.0309,-0.38541 0.14559,-0.6984 0.49193,-0.8724 0.29364,-0.14754 0.54749,-0.13777 0.84448,0.0325 0.60463,0.34664 0.62796,1.15479 0.0446,1.5445 -0.25565,0.17079 -0.71482,0.19057 -0.95347,0.0411 z" id="path-11"/>
    </g>
    <path id="path-12" d="M 1011.939 306.276 L 1014.692 300.853" style="opacity:1;fill:none;fill-rule:evenodd;stroke:#ffffff;stroke-width:0.62836725px;stroke-linecap:butt;stroke-linejoin:miter;stroke-opacity:1;marker-end:url(#Arrow1Lend-8-28-6-9-2-6-6)"/>
  </g>
</svg>