<?xml version="1.0" encoding="utf-8"?>
<svg viewBox="936.9108 502.9818 50.8022 44.5722" width="50.8022" height="44.5722" xmlns="http://www.w3.org/2000/svg">
  <g transform="matrix(0.990001, 0, 0, 0.990001, 10.457176, 5.938725)">
    <g>
      <g transform="matrix(0.98421, 0, 0, 0.98421, 930.692444, 491.312378)" id="layer1-61-3-6-1-9-7-2-6-0-9" style="opacity:1;fill:#d1d4d0;fill-opacity:1;stroke:#2c3e50;stroke-width:1.5;stroke-miterlimit:4;stroke-dasharray:none;stroke-opacity:1">
        <circle r="21.168638" cy="33.02533" cx="27.486773" id="path4149-8-7-0-3-3-3-0-3-1-8" style="fill:#d1d4d0;fill-opacity:1;fill-rule:evenodd;stroke:#2c3e50;stroke-width:1.5;stroke-linecap:butt;stroke-linejoin:miter;stroke-miterlimit:4;stroke-dasharray:none;stroke-opacity:1"/>
      </g>
      <path style="fill:#2c3e50;fill-opacity:1;stroke:none;stroke-opacity:1;opacity:0.98" id="path11-8-6-33" d="M 968.263 524.338 C 967.786 524.338 967.355 524.626 967.173 525.067 L 966.772 526.032 L 965.651 518.576 C 965.578 517.975 965.063 517.524 964.455 517.536 C 963.852 517.547 963.351 518.015 963.302 518.619 L 962.87 521.873 L 962.342 512.917 C 962.294 512.303 961.783 511.826 961.168 511.826 C 960.551 511.824 960.037 512.3 959.99 512.913 L 959.634 519.442 L 959.032 509.872 C 958.993 509.25 958.479 508.765 957.853 508.765 C 957.229 508.767 956.714 509.252 956.677 509.875 L 956.158 518.372 L 955.72 511.644 C 955.68 511.021 955.167 510.54 954.545 510.54 C 953.922 510.54 953.407 511.02 953.366 511.642 L 952.831 519.782 L 952.41 515.969 C 952.364 515.355 951.857 514.878 951.243 514.873 C 950.627 514.869 950.11 515.339 950.058 515.953 L 949.272 523.103 L 949.091 521.863 C 949.014 521.349 948.614 520.946 948.1 520.868 C 947.584 520.79 947.081 521.058 946.858 521.527 L 945.523 524.338 L 941.063 524.338 L 941.063 526.697 L 946.269 526.697 C 946.712 526.697 947.12 526.447 947.32 526.052 L 948.411 531.507 C 948.498 532.098 949.017 532.533 949.613 532.514 C 950.212 532.496 950.702 532.031 950.755 531.438 L 951.136 528.984 L 951.712 536.936 C 951.759 537.554 952.274 538.034 952.894 538.031 C 953.514 538.029 954.026 537.545 954.067 536.929 L 954.538 529.778 L 955.023 537.224 C 955.064 537.845 955.579 538.327 956.202 538.326 C 956.826 538.326 957.339 537.84 957.378 537.219 L 957.877 529.049 L 958.334 536.336 C 958.373 536.952 958.884 537.435 959.504 537.44 C 960.123 537.446 960.64 536.967 960.689 536.352 L 961.151 530.4 L 961.648 533.003 C 961.693 533.618 962.202 534.093 962.817 534.095 C 963.433 534.098 963.948 533.625 963.997 533.012 L 964.691 528.527 L 964.962 528.824 C 965.024 529.36 965.438 529.779 965.972 529.855 C 966.505 529.928 967.018 529.634 967.223 529.137 L 969.051 526.699 L 974.177 526.699 L 974.177 524.339 L 968.263 524.339 L 968.263 524.338 Z"/>
      <g transform="matrix(0.502667, 0, 0, 0.502667, 962.453308, 519.608765)" id="layer1-61-3-6-1-9-7-2-5-9-8-4-5-8" style="opacity:1;fill:#ff0c0c;fill-opacity:1;stroke:none;stroke-width:1.5;stroke-miterlimit:4;stroke-dasharray:none;stroke-opacity:1">
        <circle r="21.168638" cy="33.02533" cx="27.486773" id="path4149-8-7-0-3-3-3-0-6-5-9-2-9-0" style="fill:#ff0c0c;fill-opacity:1;fill-rule:evenodd;stroke:none;stroke-width:1.5;stroke-linecap:butt;stroke-linejoin:miter;stroke-miterlimit:4;stroke-dasharray:none;stroke-opacity:1"/>
      </g>
      <g transform="matrix(0.98421, 0, 0, 0.98421, 692.560486, 372.138855)" id="g12039-8-8">
        <path id="path5963-9-3-6-5-1-6" d="m 287.28656,158.41874 0,10.78358" style="opacity:1;fill:#ffffff;fill-opacity:1;fill-rule:evenodd;stroke:#ffffff;stroke-width:1.10284495;stroke-linecap:round;stroke-linejoin:miter;stroke-miterlimit:4;stroke-dasharray:none;stroke-opacity:1"/>
        <path id="path5965-8-8-3-0-9-8" d="m 285.58068,159.82 0,7.24998" style="opacity:1;fill:#ffffff;fill-opacity:1;fill-rule:evenodd;stroke:#ffffff;stroke-width:1.10284495;stroke-linecap:round;stroke-linejoin:miter;stroke-miterlimit:4;stroke-dasharray:none;stroke-opacity:1"/>
        <path id="path5967-1-0-8-1-7-3" d="m 283.93573,161.8305 0,3.10713" style="opacity:1;fill:#ffffff;fill-opacity:1;fill-rule:evenodd;stroke:#ffffff;stroke-width:1.10284495;stroke-linecap:round;stroke-linejoin:miter;stroke-miterlimit:4;stroke-dasharray:none;stroke-opacity:1"/>
        <path id="path5963-2-9-1-1-6-6-8" d="m 289.00548,164.2196 0,10.78357" style="opacity:1;fill:#ffffff;fill-opacity:1;fill-rule:evenodd;stroke:#ffffff;stroke-width:1.10284495;stroke-linecap:round;stroke-linejoin:round;stroke-miterlimit:4;stroke-dasharray:none;stroke-opacity:1"/>
        <path id="path5965-0-9-4-9-7-2-6" d="m 290.71136,165.62085 0,7.24997" style="opacity:1;fill:#ffffff;fill-opacity:1;fill-rule:evenodd;stroke:#ffffff;stroke-width:1.10284495;stroke-linecap:round;stroke-linejoin:round;stroke-miterlimit:4;stroke-dasharray:none;stroke-opacity:1"/>
        <path id="path5967-4-4-6-4-3-8-0" d="m 292.35631,167.63134 0,3.10714" style="opacity:1;fill:#ffffff;fill-opacity:1;fill-rule:evenodd;stroke:#ffffff;stroke-width:1.10284495;stroke-linecap:round;stroke-linejoin:round;stroke-miterlimit:4;stroke-dasharray:none;stroke-opacity:1"/>
      </g>
    </g>
  </g>
</svg>