<?xml version="1.0" encoding="utf-8"?>
<svg viewBox="861.0483 277.8303 51.2659 45.1944" width="51.2659" height="45.1944" xmlns="http://www.w3.org/2000/svg">
  <g transform="matrix(0.975308, 0, 0, 0.975308, 855.870789, 267.189392)" id="layer1-61-3-6-1-9-7-4-29" style="opacity:1;fill:#d1d4d0;fill-opacity:1;stroke:#2c3e50;stroke-width:1.5;stroke-miterlimit:4;stroke-dasharray:none;stroke-opacity:1">
    <circle r="21.168638" cy="33.02533" cx="27.486773" id="path4149-8-7-0-3-3-3-6-3" style="fill:#d1d4d0;fill-opacity:1;fill-rule:evenodd;stroke:#2c3e50;stroke-width:1.5;stroke-linecap:butt;stroke-linejoin:miter;stroke-miterlimit:4;stroke-dasharray:none;stroke-opacity:1"/>
  </g>
  <path d="M 882.849 291.736 L 876.271 297.244 L 881.788 297.437 L 873.033 306.137 L 876.742 306.206 L 870.597 312.993 L 885.442 304.714 L 879.917 304.772 L 891.103 295.84 L 885.052 295.826 L 892.903 283.578 L 882.849 291.736 Z" id="path4828-3-0" style="fill:#2c3e50;fill-opacity:1;fill-rule:evenodd;stroke:none;stroke-width:0.02893832pt"/>
  <g transform="matrix(0.498121, 0, 0, 0.498121, 887.796631, 295.83667)" id="layer1-61-3-6-1-9-7-2-5-9-1" style="opacity:1;fill:#ff0c0c;fill-opacity:1;stroke:none;stroke-width:1.5;stroke-miterlimit:4;stroke-dasharray:none;stroke-opacity:1">
    <circle r="21.168638" cy="33.02533" cx="27.486773" id="path4149-8-7-0-3-3-3-0-6-5-0" style="fill:#ff0c0c;fill-opacity:1;fill-rule:evenodd;stroke:none;stroke-width:1.5;stroke-linecap:butt;stroke-linejoin:miter;stroke-miterlimit:4;stroke-dasharray:none;stroke-opacity:1"/>
  </g>
  <path style="fill-opacity: 1; fill: rgb(255, 255, 255);" d="M 897.854 312.894 L 897.854 311.577 C 897.854 311.428 897.906 311.3 898.011 311.195 C 898.116 311.089 898.244 311.038 898.393 311.038 C 898.544 311.038 898.671 311.089 898.779 311.195 C 898.886 311.3 898.94 311.428 898.94 311.577 L 898.94 312.894 C 898.94 313.629 899.207 314.259 899.74 314.783 C 900.274 315.307 900.917 315.569 901.67 315.569 C 902.418 315.569 903.057 315.307 903.589 314.783 C 904.12 314.259 904.387 313.629 904.387 312.894 L 904.387 311.577 C 904.387 311.428 904.44 311.3 904.548 311.195 C 904.655 311.089 904.783 311.038 904.933 311.038 C 905.082 311.038 905.211 311.089 905.318 311.195 C 905.425 311.3 905.479 311.428 905.479 311.577 L 905.479 312.894 C 905.479 313.827 905.168 314.643 904.548 315.341 C 903.926 316.039 903.155 316.458 902.233 316.6 L 902.233 317.127 L 903.932 317.127 C 904.081 317.127 904.211 317.18 904.32 317.285 C 904.43 317.39 904.484 317.516 904.484 317.661 C 904.484 317.811 904.431 317.938 904.323 318.043 C 904.216 318.149 904.085 318.201 903.932 318.201 L 899.443 318.201 C 899.294 318.201 899.166 318.149 899.061 318.043 C 898.955 317.938 898.904 317.811 898.904 317.661 C 898.904 317.516 898.955 317.39 899.061 317.285 C 899.166 317.18 899.294 317.127 899.443 317.127 L 901.148 317.127 L 901.148 316.606 C 900.537 316.525 899.98 316.31 899.476 315.963 C 898.973 315.615 898.577 315.171 898.287 314.632 C 897.998 314.091 897.854 313.512 897.854 312.894 Z M 899.65 312.832 L 899.65 308.186 C 899.65 307.636 899.847 307.167 900.241 306.778 C 900.635 306.39 901.111 306.196 901.67 306.196 C 902.223 306.196 902.697 306.39 903.089 306.778 C 903.481 307.167 903.677 307.636 903.677 308.186 L 903.677 312.832 C 903.677 313.382 903.481 313.851 903.089 314.24 C 902.697 314.628 902.223 314.823 901.67 314.823 C 901.111 314.823 900.635 314.628 900.241 314.24 C 899.847 313.851 899.65 313.382 899.65 312.832 Z" id="path-1"/>
</svg>