<?xml version="1.0" encoding="utf-8"?>
<svg viewBox="785.698 -193.044 50 50" width="50" height="50" xmlns="http://www.w3.org/2000/svg">
  <circle r="25" cy="-168.044" cx="810.698" id="path4149-6-4" style="fill:#000000;fill-opacity:0.2696246;fill-rule:evenodd;stroke:none;stroke-width:0;stroke-linecap:butt;stroke-linejoin:miter;stroke-miterlimit:4;stroke-dasharray:none;stroke-opacity:1" transform="matrix(1, 0, 0, 1, 0, 2.842170943040401e-14)"/>
  <path id="path4149-1-2-1" d="M 820.548 -186.441 L 799.782 -150.828 L 811.712 -143.074 C 825.107 -143.618 835.687 -154.629 835.697 -168.035 C 835.686 -171.446 834.979 -174.819 833.616 -177.946 L 820.548 -186.441 Z" style="fill:#000100;fill-opacity:0.25882353;fill-rule:evenodd;stroke:none;stroke-width:0;stroke-linecap:butt;stroke-linejoin:miter;stroke-miterlimit:4;stroke-dasharray:none;stroke-opacity:1" transform="matrix(1, 0, 0, 1, 0, 2.842170943040401e-14)"/>
  <path id="rect5882-3-5" style="color: rgb(0, 0, 0); clip-rule: nonzero; display: inline; overflow: visible; visibility: visible; opacity: 1; isolation: auto; mix-blend-mode: normal; color-interpolation: srgb; color-interpolation-filters: linearrgb; fill: rgb(255, 255, 255); fill-opacity: 1; fill-rule: nonzero; stroke: rgb(0, 0, 0); stroke-linecap: round; stroke-linejoin: round; stroke-miterlimit: 4; stroke-dasharray: none; stroke-dashoffset: 0; stroke-opacity: 1; color-rendering: auto; image-rendering: auto; shape-rendering: auto; text-rendering: auto; stroke-width: 3.8px;" d="M 801.031 -184.756 L 819.741 -184.756 L 819.741 -152.197 L 801.031 -152.197 L 801.031 -184.756 Z" transform="matrix(1, 0, 0, 1, 0, 2.842170943040401e-14)"/>
  <circle style="opacity:1;fill:#ffffff;fill-opacity:1;fill-rule:evenodd;stroke:#ffffff;stroke-width:0;stroke-linecap:butt;stroke-linejoin:miter;stroke-miterlimit:4;stroke-dasharray:none;stroke-opacity:1" id="path5917-5-65" cx="810.492" cy="-152.211" r="1.509" transform="matrix(1, 0, 0, 1, 0, 2.842170943040401e-14)"/>
  <rect style="color:#000000;clip-rule:nonzero;display:inline;overflow:visible;visibility:visible;opacity:1;isolation:auto;mix-blend-mode:normal;color-interpolation:sRGB;color-interpolation-filters:linearRGB;solid-color:#000000;solid-opacity:1;fill:#ffffff;fill-opacity:1;fill-rule:nonzero;stroke:#000000;stroke-width:0.2;stroke-linecap:butt;stroke-linejoin:miter;stroke-miterlimit:4;stroke-dasharray:none;stroke-dashoffset:0;stroke-opacity:1;color-rendering:auto;image-rendering:auto;shape-rendering:auto;text-rendering:auto;enable-background:accumulate" id="rect5921-2-6" width="3.678" height="0.537" x="147.775" y="545.531" transform="matrix(1, 0, 0, 1, 660.8662719726562, -731.3186645507812)"/>
  <path style="opacity:1;fill:#1eb697;fill-opacity:1;fill-rule:evenodd;stroke:#ff0c0c;stroke-width:1.60000002;stroke-linecap:round;stroke-linejoin:miter;stroke-miterlimit:4;stroke-dasharray:none;stroke-opacity:1" d="M 796.635 -184.255 L 796.635 -165.779" id="path5963-9" transform="matrix(1, 0, 0, 1, 0, 2.842170943040401e-14)"/>
  <path style="opacity:1;fill:#1eb697;fill-opacity:1;fill-rule:evenodd;stroke:#ff0c0c;stroke-width:1.60000002;stroke-linecap:round;stroke-linejoin:miter;stroke-miterlimit:4;stroke-dasharray:none;stroke-opacity:1" d="M 793.713 -181.854 L 793.713 -169.433" id="path5965-8" transform="matrix(1, 0, 0, 1, 0, 2.842170943040401e-14)"/>
  <path style="opacity:1;fill:#1eb697;fill-opacity:1;fill-rule:evenodd;stroke:#ff0c0c;stroke-width:1.60000002;stroke-linecap:round;stroke-linejoin:miter;stroke-miterlimit:4;stroke-dasharray:none;stroke-opacity:1" d="M 790.894 -178.409 L 790.894 -173.086" id="path5967-1" transform="matrix(1, 0, 0, 1, 0, 2.842170943040401e-14)"/>
  <path style="opacity:1;fill:#1eb697;fill-opacity:1;fill-rule:evenodd;stroke:#ff0c0c;stroke-width:1.60000002;stroke-linecap:round;stroke-linejoin:round;stroke-miterlimit:4;stroke-dasharray:none;stroke-opacity:1" d="M 824.036 -170.738 L 824.036 -152.261" id="path5963-2-9" transform="matrix(1, 0, 0, 1, 0, 2.842170943040401e-14)"/>
  <path style="opacity:1;fill:#1eb697;fill-opacity:1;fill-rule:evenodd;stroke:#ff0c0c;stroke-width:1.60000002;stroke-linecap:round;stroke-linejoin:round;stroke-miterlimit:4;stroke-dasharray:none;stroke-opacity:1" d="M 826.959 -168.336 L 826.959 -155.914" id="path5965-0-9" transform="matrix(1, 0, 0, 1, 0, 2.842170943040401e-14)"/>
  <path style="opacity:1;fill:#1eb697;fill-opacity:1;fill-rule:evenodd;stroke:#ff0c0c;stroke-width:1.60000002;stroke-linecap:round;stroke-linejoin:round;stroke-miterlimit:4;stroke-dasharray:none;stroke-opacity:1" d="M 829.778 -164.892 L 829.778 -159.568" id="path5967-4-4" transform="matrix(1, 0, 0, 1, 0, 2.842170943040401e-14)"/>
</svg>