<?xml version="1.0" encoding="utf-8"?>
<svg viewBox="532.0603 -363.1313 78.2103 78.2202" width="78.2103" height="78.2202" xmlns="http://www.w3.org/2000/svg">
  <g transform="matrix(0.958953, 0, 0, 0.958953, 23.49304, -13.202506)">
    <g transform="matrix(1.847289, 0, 0, 1.847289, 520.388916, -385.022949)" id="layer1-61-3-6-1-9-7-4-29-8-5-6-11-1" style="opacity:1;fill:#d1d4d0;fill-opacity:1;stroke:#2c3e50;stroke-width:1.50003576;stroke-miterlimit:4;stroke-dasharray:none;stroke-opacity:1">
      <circle r="21.168638" cy="33.02533" cx="27.486773" id="path4149-8-7-0-3-3-3-6-3-1-0-0-7-9" style="fill:#d1d4d0;fill-opacity:1;fill-rule:evenodd;stroke:#2c3e50;stroke-width:1.50003576;stroke-linecap:butt;stroke-linejoin:miter;stroke-miterlimit:4;stroke-dasharray:none;stroke-opacity:1"/>
    </g>
    <path style="fill:#2c3b50;fill-opacity:0.33788398;fill-rule:evenodd;stroke:none;stroke-width:2.77093387;stroke-linecap:butt;stroke-linejoin:miter;stroke-miterlimit:4;stroke-dasharray:none;stroke-opacity:1" d="m 585.29614,-347.10622 -8.52828,6.53706 -3.41016,13.60547 -21.66211,16.67969 -0.78515,5.3125 22.55078,20.00586 c 19.06787,-2.93167 36.7736,-19.70613 36.78711,-38.99805 -0.0133,-1.86618 -0.0351,-1.72901 -0.31445,-3.57422 z" id="path4149-8-7-0-3-3-3-6-3-1-0-9-1"/>
    <g transform="matrix(1.847289, 0, 0, 1.847289, 520.390015, -385.033997)" id="layer1-61-3-6-1-9-7-4-29-8-5-6-1-6-4" style="opacity:1;fill:none;fill-opacity:1;stroke:#2c3b50;stroke-width:1.50003576;stroke-miterlimit:4;stroke-dasharray:none;stroke-opacity:1">
      <circle r="21.168638" cy="33.02533" cx="27.486773" id="path4149-8-7-0-3-3-3-6-3-1-0-0-3-6-6" style="fill:none;fill-opacity:1;fill-rule:evenodd;stroke:#2c3b50;stroke-width:1.50003576;stroke-linecap:butt;stroke-linejoin:miter;stroke-miterlimit:4;stroke-dasharray:none;stroke-opacity:1"/>
    </g>
    <path id="path5-5" d="m 592.11295,-310.2765 -15.03549,-15.03608 c -0.14081,-0.14139 -0.29141,-0.26681 -0.44646,-0.38419 l 2.66297,-2.80407 c 0.13616,-0.13713 0.26497,-0.28133 0.38351,-0.4296 3.53535,1.33356 7.68374,0.58388 10.52539,-2.25738 2.07269,-2.07337 3.11794,-4.94039 2.86498,-7.86639 -0.0274,-0.33112 -0.24676,-0.61739 -0.5587,-0.73041 -0.31262,-0.11418 -0.66291,-0.0363 -0.89815,0.19805 l -4.81875,4.81846 -4.8788,-1.22985 -1.38363,-5.03278 4.81759,-4.81788 c 0.2364,-0.23562 0.31368,-0.58621 0.19979,-0.89844 -0.11341,-0.3131 -0.39958,-0.53061 -0.73167,-0.55977 -2.92571,-0.25218 -5.79292,0.79249 -7.86639,2.86586 -2.83923,2.83923 -3.59085,6.98539 -2.25873,10.51929 -0.14488,0.12251 -0.28909,0.25277 -0.43048,0.39213 l -3.91945,3.76429 -7.19747,-7.1968 c -0.0899,-0.0902 -0.18575,-0.16948 -0.28454,-0.24395 0.0844,-0.14817 0.16658,-0.30071 0.24328,-0.45905 1.52009,0.29257 4.29898,-2.66752 6.65911,-5.02678 l -6.87566,-6.87643 c -3.07456,3.07505 -5.31964,5.13873 -5.02823,6.65882 -0.7029,0.34342 -1.3295,0.76334 -1.77479,1.20922 l -0.96856,0.96826 c -0.62882,0.62969 -1.00806,1.41279 -1.14345,2.22881 -0.0939,0.1073 -0.18953,0.22032 -0.28454,0.34119 l -0.36094,0.45362 c -0.0101,0.0111 -0.0412,0.0558 -0.0498,0.0672 l -0.32714,0.45799 c -0.20464,0.273 -0.38351,0.56955 -0.55648,0.85573 -0.0638,0.10623 -0.1288,0.21267 -0.19514,0.31881 -0.0106,0.0183 -0.0209,0.0363 -0.0303,0.0544 l -0.14536,0.27388 c -0.17568,0.32947 -0.35804,0.67056 -0.51406,1.04584 l -0.0252,0.0598 c -0.18401,0.43706 -0.3747,0.88962 -0.50776,1.3693 l -0.0644,0.20754 c -0.0527,0.17064 -0.10624,0.3409 -0.15544,0.54437 l -0.13365,0.66175 c -0.0997,0.41382 -0.13316,0.82202 -0.16231,1.18355 l -0.0195,0.23756 c -0.0492,0.37489 -0.0349,0.72838 -0.0215,1.04032 0.005,0.1045 0.009,0.20696 0.0117,0.34516 0.003,0.0575 0.004,0.1136 0.006,0.1689 0.003,0.13936 0.007,0.2977 0.0341,0.46418 l 0.0839,0.53701 c 0.018,0.10382 0.0332,0.20463 0.0476,0.30128 0.0321,0.2181 0.065,0.44365 0.12997,0.65778 l 0.35174,1.22045 c 0.10847,0.37092 0.46079,0.61652 0.84634,0.5896 0.20405,-0.0142 0.38748,-0.10247 0.52403,-0.23931 0.12193,-0.12193 0.20638,-0.28221 0.23214,-0.46302 l 0.18236,-1.24079 c 0.0135,-0.0985 0.0558,-0.24269 0.0996,-0.39532 0.0312,-0.10585 0.0615,-0.21384 0.0849,-0.30594 l 0.12968,-0.46311 c 0.0158,-0.0627 0.0464,-0.12367 0.0733,-0.18633 0.0258,-0.0581 0.0515,-0.11796 0.0745,-0.17694 0.0435,-0.0985 0.0845,-0.19689 0.12474,-0.2979 0.0799,-0.19805 0.15544,-0.38438 0.27078,-0.56732 0.0502,-0.0845 0.0968,-0.16832 0.1443,-0.25393 0.12019,-0.21519 0.23437,-0.41837 0.37005,-0.58679 0.009,-0.01 0.0163,-0.0211 0.0252,-0.0329 l 0.30593,-0.42186 c 0.0627,-0.0793 0.13307,-0.15427 0.20154,-0.22981 0.0486,-0.0533 0.0973,-0.10682 0.15883,-0.17723 0.18061,-0.21722 0.39271,-0.40665 0.59734,-0.59308 l 0.10963,-0.0985 c 0.15166,-0.14082 0.32715,-0.2733 0.51173,-0.41334 0.0755,-0.0565 0.14944,-0.11254 0.22207,-0.16774 0.0933,-0.0604 0.18352,-0.12076 0.27243,-0.18061 0.16657,-0.11254 0.31078,-0.20987 0.47745,-0.29655 l 0.36268,-0.20637 0.36695,-0.17994 c 0.12794,-0.0661 0.25393,-0.11709 0.37005,-0.16396 0.0689,-0.0287 0.13713,-0.0565 0.20037,-0.0839 0.0644,-0.0223 0.12648,-0.0464 0.18517,-0.0681 0.0786,-0.0287 0.14653,-0.0562 0.23873,-0.0802 l 0.099,-0.0223 c 0.10789,0.17462 0.23437,0.34061 0.38613,0.49227 l 7.11961,7.1199 -15.19877,14.59853 c -0.006,0.006 -0.0117,0.012 -0.0172,0.0172 -1.8913,1.8913 -2.19927,4.66128 -0.30768,6.55316 1.89159,1.8913 4.48551,1.40639 6.37632,-0.48423 0.008,-0.008 0.0155,-0.0155 0.0229,-0.0241 l 13.4081,-14.11837 c 0.0786,0.0927 0.1565,0.18595 0.24385,0.2735 l 15.03433,15.03559 c 1.68473,1.68521 4.41743,1.68521 6.10216,0 1.68424,-1.68415 1.68424,-4.41694 9e-5,-6.10099 z m -36.77358,3.37497 c -0.69642,0.69719 -1.82603,0.69719 -2.52302,0 -0.69632,-0.69661 -0.69632,-1.82554 0,-2.52215 0.69632,-0.69613 1.82602,-0.69661 2.52302,0 0.69574,0.69671 0.69574,1.82554 0,2.52215 z" style="fill:#2c3e50;fill-opacity:1;stroke:none;stroke-width:15.73713303;stroke-miterlimit:4;stroke-dasharray:none;stroke-opacity:1"/>
    <path style="fill:#2c3b50;fill-opacity:0.33788398;fill-rule:evenodd;stroke:none;stroke-width:2.77093387;stroke-linecap:butt;stroke-linejoin:miter;stroke-miterlimit:4;stroke-dasharray:none;stroke-opacity:1" d="m 563.15433,-349.08102 -3.13659,9.01193 -1.02367,1.49627 -7.54207,11.2659 0.0324,1.97584 12.43032,11.388 c 6.11897,-7.57206 6.20454,-8.48081 12.96644,-15.35417 1.30879,-1.33036 3.80979,-2.56869 5.78434,-2.82291 z" id="path4149-8-7-0-3-3-3-6-3-1-0-9-1-6"/>
  </g>
</svg>