<?xml version="1.0" encoding="utf-8"?>
<svg viewBox="1179.9445 -353.9548 78.2092 78.2092" width="78.2092" height="78.2092" xmlns="http://www.w3.org/2000/svg">
  <g transform="matrix(0.569605, 0, 0, 0.569605, 1195.187012, -348.586548)">
    <path d="M 39.226 11.367 C 39.226 12.917 37.966 14.147 36.446 14.147 C 34.896 14.147 33.666 12.887 33.666 11.367 L 33.666 0.157 C 33.666 -1.393 34.926 -2.623 36.446 -2.623 C 37.996 -2.623 39.226 -1.363 39.226 0.157 L 39.226 11.367 Z M 13.926 34.327 C 15.476 34.327 16.706 35.587 16.706 37.107 C 16.706 38.657 15.446 39.887 13.926 39.887 L 2.716 39.887 C 1.166 39.877 -0.064 38.617 -0.064 37.107 C -0.064 35.557 1.196 34.327 2.716 34.327 L 13.926 34.327 Z M 21.856 17.707 C 22.936 18.787 22.936 20.557 21.856 21.637 C 20.776 22.717 19.006 22.717 17.926 21.637 L 10.026 13.707 C 8.946 12.627 8.946 10.857 10.026 9.777 C 11.106 8.697 12.876 8.697 13.956 9.777 L 21.856 17.707 Z M 58.406 39.877 C 56.856 39.877 55.626 38.617 55.626 37.097 C 55.626 35.547 56.886 34.317 58.406 34.317 L 69.616 34.317 C 71.166 34.317 72.396 35.577 72.396 37.097 C 72.396 38.647 71.136 39.877 69.616 39.877 L 58.406 39.877 Z M 54.406 21.027 C 53.326 22.107 51.556 22.107 50.476 21.027 C 49.396 19.947 49.396 18.177 50.476 17.097 L 58.376 9.167 C 59.456 8.087 61.226 8.087 62.306 9.167 C 63.386 10.247 63.386 12.017 62.306 13.097 L 54.406 21.027 Z M 48.406 50.167 C 48.606 50.107 48.796 50.087 49.026 50.087 L 52.266 50.087 C 52.436 50.087 52.636 50.117 52.796 50.147 C 57.106 50.827 59.056 53.337 59.846 56.597 C 60.156 56.457 60.496 56.367 60.836 56.367 L 64.076 56.367 C 64.246 56.367 64.446 56.397 64.606 56.427 C 69.256 57.157 71.116 60.007 71.796 63.617 C 71.906 63.587 72.026 63.587 72.166 63.587 L 75.406 63.587 C 75.576 63.587 75.776 63.617 75.946 63.647 C 84.856 65.027 84.736 73.877 84.656 81.007 L 84.656 82.867 L 84.856 91.097 L 84.856 91.347 C 84.516 98.367 81.756 102.907 78.576 108.147 C 78.036 109.017 77.506 109.917 76.776 111.167 C 76.746 111.197 76.746 111.227 76.716 111.247 C 75.056 114.147 73.136 116.377 70.936 117.897 C 68.706 119.447 66.226 120.237 63.526 120.267 L 35.466 120.267 C 32.676 120.327 30.506 119.107 28.896 116.717 C 27.596 114.797 26.756 112.097 26.306 108.717 L 8.836 83.727 L 8.746 83.647 C 7.706 82.267 6.296 80.097 5.226 77.697 C 4.436 75.897 3.846 73.947 3.706 72.027 C 3.566 69.747 3.876 67.937 4.526 66.507 C 5.316 64.727 6.616 63.577 8.166 62.957 C 9.606 62.367 11.236 62.277 12.876 62.617 C 14.846 63.017 16.876 63.997 18.596 65.437 C 20.006 66.617 22.376 68.537 24.686 70.427 L 26.606 72.007 L 26.606 39.507 C 26.606 33.277 29.366 29.277 32.946 27.467 C 34.386 26.737 35.936 26.367 37.516 26.367 C 39.096 26.367 40.646 26.737 42.076 27.467 C 45.656 29.267 48.476 33.297 48.476 39.417 L 48.476 50.177 L 48.406 50.167 Z" style="fill: rgb(44, 62, 80);"/>
  </g>
</svg>