<?xml version="1.0" encoding="utf-8"?>
<svg viewBox="397.6946 -379.9375 42.3724 42.3373" width="42.5px" height="42.4px" xmlns="http://www.w3.org/2000/svg">
  <defs>
    <clipPath clipPathUnits="userSpaceOnUse" id="clipPath4262-2">
      <rect style="color:#000000;clip-rule:nonzero;display:inline;overflow:visible;visibility:visible;opacity:1;isolation:auto;mix-blend-mode:normal;color-interpolation:sRGB;color-interpolation-filters:linearRGB;solid-color:#000000;solid-opacity:1;fill:#3b97d3;fill-opacity:1;fill-rule:nonzero;stroke:#000000;stroke-width:0.30923778;stroke-linecap:butt;stroke-linejoin:miter;stroke-miterlimit:4;stroke-dasharray:none;stroke-dashoffset:0;stroke-opacity:0;color-rendering:auto;image-rendering:auto;shape-rendering:auto;text-rendering:auto;enable-background:accumulate" id="rect4264-3" width="9.7691021" height="19.88961" x="-10.254234" y="-44.562408" transform="matrix(-0.70710678,0.70710678,-0.70710678,-0.70710678,0,0)"/>
    </clipPath>
  </defs>
  <g transform="matrix(0.991179, 0, 0, 0.991179, 391.640747, -391.444153)" id="layer1-61">
    <circle r="21.168638" cy="33.02533" cx="27.486773" id="path4149-8" style="fill:#3b97d3;fill-opacity:1;fill-rule:evenodd;stroke:none;stroke-width:0;stroke-linecap:butt;stroke-linejoin:miter;stroke-miterlimit:4;stroke-dasharray:none;stroke-opacity:1"/>
  </g>
  <path id="path4149-1-2-9" d="M 427.189 -374.169 L 409.761 -344.278 L 419.773 -337.771 C 431.015 -338.227 439.894 -347.469 439.903 -358.721 C 439.894 -361.583 439.3 -364.413 438.157 -367.039 L 427.189 -374.169 Z" style="fill:#1a4f72;fill-opacity:1;fill-rule:evenodd;stroke:none;stroke-width:0;stroke-linecap:butt;stroke-linejoin:miter;stroke-miterlimit:4;stroke-dasharray:none;stroke-opacity:1"/>
  <g id="g4285" transform="matrix(0.991179, 0, 0, 0.991179, 387.043915, -390.831635)">
    <path d="m 23.834038,18.073663 15.842969,0 0,27.57024 -15.842969,0 z" style="color:#000000;clip-rule:nonzero;display:inline;overflow:visible;visibility:visible;opacity:1;isolation:auto;mix-blend-mode:normal;color-interpolation:sRGB;color-interpolation-filters:linearRGB;solid-color:#000000;solid-opacity:1;fill:#ffffff;fill-opacity:1;fill-rule:nonzero;stroke:#000000;stroke-width:3.13000011;stroke-linecap:round;stroke-linejoin:round;stroke-miterlimit:4;stroke-dasharray:none;stroke-dashoffset:0;stroke-opacity:1;color-rendering:auto;image-rendering:auto;shape-rendering:auto;text-rendering:auto;enable-background:accumulate" id="rect5882-2"/>
    <circle r="1.2779126" cy="45.631516" cx="31.846432" id="path5917-9" style="fill:#ffffff;fill-opacity:1;fill-rule:evenodd;stroke:#ffffff;stroke-width:0;stroke-linecap:butt;stroke-linejoin:miter;stroke-miterlimit:4;stroke-dasharray:none;stroke-opacity:1"/>
    <rect y="17.19969" x="30.278252" height="0.45454547" width="3.1136363" id="rect5921-21" style="color:#000000;clip-rule:nonzero;display:inline;overflow:visible;visibility:visible;opacity:1;isolation:auto;mix-blend-mode:normal;color-interpolation:sRGB;color-interpolation-filters:linearRGB;solid-color:#000000;solid-opacity:1;fill:#ffffff;fill-opacity:1;fill-rule:nonzero;stroke:#000000;stroke-width:0.2;stroke-linecap:butt;stroke-linejoin:miter;stroke-miterlimit:4;stroke-dasharray:none;stroke-dashoffset:0;stroke-opacity:1;color-rendering:auto;image-rendering:auto;shape-rendering:auto;text-rendering:auto;enable-background:accumulate"/>
  </g>
  <g id="g4257" clip-path="url(#clipPath4262-2)" transform="matrix(0.991179, 0, 0, 0.991179, 386.975952, -389.175049)">
    <circle r="1.9678767" cy="30.523098" cx="31.802866" id="path7512" style="fill:none;fill-rule:evenodd;stroke:#000000;stroke-width:1.39156985;stroke-linecap:butt;stroke-linejoin:miter;stroke-miterlimit:4;stroke-dasharray:none;stroke-opacity:1"/>
    <circle r="4.5430665" cy="30.505527" cx="31.820436" id="path7514" style="fill:none;fill-rule:evenodd;stroke:#000000;stroke-width:1.35064137;stroke-linecap:butt;stroke-linejoin:miter;stroke-miterlimit:4;stroke-dasharray:none;stroke-opacity:1"/>
    <circle clip-path="none" r="7.2688875" cy="30.523087" cx="31.838015" id="path7516" style="fill:none;fill-rule:evenodd;stroke:#000000;stroke-width:1.43013895;stroke-linecap:butt;stroke-linejoin:miter;stroke-miterlimit:4;stroke-dasharray:none;stroke-opacity:1"/>
  </g>
  <circle style="fill:#000000;fill-rule:evenodd;stroke:#000000;stroke-width:0.92771333;stroke-linecap:butt;stroke-linejoin:miter;stroke-miterlimit:4;stroke-dasharray:none;stroke-opacity:1" id="path7535" cx="418.53" cy="-358.713" r="0.488"/>
  <path id="path4768" d="M 413.125 -363.737 L 412.658 -364.212 L 413.095 -364.622 C 414.614 -366.045 416.492 -366.787 418.571 -366.782 C 420.639 -366.777 422.545 -366 424.041 -364.552 L 424.412 -364.193 L 423.936 -363.719 L 423.461 -363.243 L 423.005 -363.664 C 421.911 -364.68 420.687 -365.237 419.186 -365.403 C 417.332 -365.611 415.454 -364.971 414.07 -363.664 C 413.835 -363.444 413.632 -363.264 413.618 -363.264 C 413.604 -363.264 413.382 -363.478 413.125 -363.737 Z" style="fill:#ff0c0c;fill-opacity:1;stroke:#ff0c0c;stroke-width:0.19571705;stroke-miterlimit:4;stroke-dasharray:none;stroke-opacity:1"/>
  <path id="path4770" d="M 421.146 -361.743 C 420.71 -362.168 419.983 -362.566 419.385 -362.707 C 419.196 -362.752 418.772 -362.785 418.446 -362.781 C 417.429 -362.768 416.49 -362.375 415.776 -361.662 L 415.488 -361.373 L 415.044 -361.817 L 414.6 -362.261 L 414.912 -362.581 C 416.265 -363.968 418.411 -364.441 420.276 -363.762 C 421.034 -363.486 422.068 -362.789 422.345 -362.367 C 422.439 -362.223 422.431 -362.207 421.993 -361.787 L 421.543 -361.355 L 421.146 -361.743 Z" style="fill:#ff0c0c;fill-opacity:1;stroke:#ff0c0c;stroke-width:0.19571705;stroke-miterlimit:4;stroke-dasharray:none;stroke-opacity:1"/>
  <path id="path4772" d="M 419.634 -359.49 C 419.634 -359.627 419.295 -359.966 419.043 -360.079 C 418.517 -360.318 417.916 -360.184 417.525 -359.738 L 417.335 -359.523 L 416.858 -360.002 L 416.38 -360.484 L 416.646 -360.738 C 417.029 -361.103 417.24 -361.233 417.698 -361.387 C 418.259 -361.578 419.011 -361.544 419.531 -361.305 C 419.946 -361.114 420.327 -360.832 420.506 -360.578 L 420.629 -360.406 L 420.133 -359.912 C 419.858 -359.641 419.634 -359.45 419.634 -359.49 Z" style="fill:#ff0c0c;fill-opacity:1;stroke:#ff0c0c;stroke-width:0.19571705;stroke-miterlimit:4;stroke-dasharray:none;stroke-opacity:1"/>
  <path id="path4774" d="M 418.071 -357.921 C 417.811 -358.084 417.674 -358.323 417.647 -358.661 C 417.616 -359.043 417.791 -359.352 418.133 -359.524 C 418.425 -359.672 418.676 -359.661 418.972 -359.493 C 419.571 -359.148 419.594 -358.348 419.015 -357.962 C 418.762 -357.792 418.306 -357.772 418.071 -357.921 Z" style="fill:#ff0c0c;fill-opacity:1;stroke:#ff0c0c;stroke-width:0.19571705;stroke-miterlimit:4;stroke-dasharray:none;stroke-opacity:1"/>
</svg>